<svg width="32" height="32" viewBox="0 0 32 32" fill="none" xmlns="http://www.w3.org/2000/svg">
<path d="M28.7792 6.38962C28.5021 6.39788 28.2391 6.5137 28.0459 6.71254L11.7334 23.025L5.02086 16.3125C4.92257 16.2102 4.80484 16.1284 4.67457 16.0721C4.5443 16.0158 4.40411 15.9861 4.2622 15.9846C4.12029 15.9832 3.97952 16.0101 3.84813 16.0637C3.71674 16.1174 3.59737 16.1967 3.49702 16.297C3.39667 16.3974 3.31735 16.5168 3.26371 16.6481C3.21007 16.7795 3.18318 16.9203 3.18463 17.0622C3.18607 17.2041 3.21581 17.3443 3.27212 17.4746C3.32842 17.6049 3.41015 17.7226 3.51252 17.8209L10.9792 25.2875C11.1792 25.4875 11.4505 25.5998 11.7334 25.5998C12.0162 25.5998 12.2875 25.4875 12.4875 25.2875L29.5542 8.22087C29.7083 8.07105 29.8136 7.87815 29.8562 7.66746C29.8989 7.45677 29.8768 7.23813 29.7931 7.04017C29.7093 6.84221 29.5677 6.67418 29.3867 6.55809C29.2058 6.44201 28.9941 6.38329 28.7792 6.38962Z" fill="black"/>
</svg>
