<svg width="32" height="32" viewBox="0 0 32 32" fill="none" xmlns="http://www.w3.org/2000/svg">
	<path d="M8.51046 6.37922C8.08625 6.37975 7.67182 6.50672 7.32012 6.74392C6.96842 6.98112 6.69542 7.31778 6.53598 7.7109C6.37654 8.10401 6.33792 8.53573 6.42503 8.9509C6.51214 9.36607 6.72104 9.74585 7.02505 10.0417L12.9834 16.0001L7.02505 21.9584C6.8203 22.155 6.65684 22.3904 6.54424 22.651C6.43163 22.9115 6.37214 23.1919 6.36925 23.4757C6.36636 23.7595 6.42014 24.0411 6.52742 24.3039C6.6347 24.5666 6.79334 24.8054 6.99404 25.0061C7.19474 25.2068 7.43347 25.3654 7.69625 25.4727C7.95903 25.58 8.24057 25.6337 8.52439 25.6309C8.80821 25.628 9.0886 25.5685 9.34914 25.4559C9.60968 25.3433 9.84514 25.1798 10.0417 24.9751L16 19.0167L21.9584 24.9751C22.155 25.1798 22.3904 25.3433 22.651 25.4559C22.9115 25.5685 23.1919 25.628 23.4757 25.6309C23.7595 25.6338 24.0411 25.58 24.3039 25.4727C24.5666 25.3654 24.8054 25.2068 25.0061 25.0061C25.2068 24.8054 25.3654 24.5666 25.4727 24.3039C25.58 24.0411 25.6337 23.7595 25.6309 23.4757C25.628 23.1919 25.5685 22.9115 25.4559 22.651C25.3433 22.3904 25.1798 22.155 24.975 21.9584L19.0167 16.0001L24.975 10.0417C25.2833 9.74207 25.4939 9.35628 25.5791 8.9349C25.6644 8.51353 25.6203 8.07623 25.4528 7.68031C25.2852 7.28439 25.002 6.94833 24.6401 6.71616C24.2783 6.48399 23.8548 6.36655 23.425 6.37922C22.8708 6.39574 22.3448 6.62737 21.9584 7.02506L16 12.9834L10.0417 7.02506C9.84266 6.82044 9.60458 6.65786 9.34155 6.54692C9.07853 6.43599 8.79592 6.37896 8.51046 6.37922V6.37922Z" fill="black"/>
</svg>
