<svg width="32" height="32" viewBox="0 0 32 32" fill="none" xmlns="http://www.w3.org/2000/svg">
	<path d="M4.2667 5.33337C3.98381 5.3334 3.71252 5.44579 3.51249 5.64582C3.31245 5.84586 3.20006 6.11715 3.20003 6.40004V24.5334C3.19809 24.6888 3.23016 24.8429 3.29399 24.9846C3.35783 25.1264 3.45188 25.2525 3.56957 25.3541C3.68725 25.4558 3.82573 25.5304 3.9753 25.5729C4.12487 25.6154 4.28192 25.6246 4.43545 25.6H9.97295C9.73615 24.9323 9.60003 24.2155 9.60003 23.4667H5.33337V7.46671H26.6667V23.4667H22.4C22.4 24.2155 22.2639 24.9323 22.0271 25.6H27.5542C27.7085 25.6263 27.8667 25.6183 28.0176 25.5766C28.1684 25.5349 28.3083 25.4606 28.4272 25.3588C28.5461 25.257 28.6411 25.1302 28.7055 24.9876C28.77 24.845 28.8022 24.6899 28.8 24.5334V6.40004C28.8 6.11715 28.6876 5.84586 28.4876 5.64582C28.2876 5.44579 28.0163 5.3334 27.7334 5.33337H4.2667ZM10.6667 10.6667C10.5254 10.6647 10.385 10.6908 10.2539 10.7435C10.1227 10.7962 10.0033 10.8745 9.90265 10.9737C9.80199 11.073 9.72205 11.1912 9.6675 11.3217C9.61294 11.4521 9.58484 11.592 9.58484 11.7334C9.58484 11.8747 9.61294 12.0147 9.6675 12.1451C9.72205 12.2755 9.80199 12.3938 9.90265 12.493C10.0033 12.5923 10.1227 12.6705 10.2539 12.7232C10.385 12.7759 10.5254 12.802 10.6667 12.8H21.3334C21.4747 12.802 21.615 12.7759 21.7462 12.7232C21.8774 12.6705 21.9968 12.5923 22.0974 12.493C22.1981 12.3938 22.278 12.2755 22.3326 12.1451C22.3871 12.0147 22.4152 11.8747 22.4152 11.7334C22.4152 11.592 22.3871 11.4521 22.3326 11.3217C22.278 11.1912 22.1981 11.073 22.0974 10.9737C21.9968 10.8745 21.8774 10.7962 21.7462 10.7435C21.615 10.6908 21.4747 10.6647 21.3334 10.6667H10.6667ZM10.6667 14.9334C10.5254 14.9314 10.385 14.9575 10.2539 15.0102C10.1227 15.0629 10.0033 15.1412 9.90265 15.2404C9.80199 15.3397 9.72205 15.4579 9.6675 15.5883C9.61294 15.7187 9.58484 15.8587 9.58484 16C9.58484 16.1414 9.61294 16.2814 9.6675 16.4118C9.72205 16.5422 9.80199 16.6604 9.90265 16.7597C10.0033 16.8589 10.1227 16.9372 10.2539 16.9899C10.385 17.0426 10.5254 17.0687 10.6667 17.0667H21.3334C21.4747 17.0687 21.615 17.0426 21.7462 16.9899C21.8774 16.9372 21.9968 16.8589 22.0974 16.7597C22.1981 16.6604 22.278 16.5422 22.3326 16.4118C22.3871 16.2814 22.4152 16.1414 22.4152 16C22.4152 15.8587 22.3871 15.7187 22.3326 15.5883C22.278 15.4579 22.1981 15.3397 22.0974 15.2404C21.9968 15.1412 21.8774 15.0629 21.7462 15.0102C21.615 14.9575 21.4747 14.9314 21.3334 14.9334H10.6667ZM16 19.2C13.6563 19.2 11.7334 21.1229 11.7334 23.4667C11.7334 24.5335 12.1449 25.5013 12.8 26.2521V32L16 29.8667L19.2 32V26.2521C19.8552 25.5013 20.2667 24.5335 20.2667 23.4667C20.2667 21.1229 18.3438 19.2 16 19.2ZM16 21.3334C17.1909 21.3334 18.1334 22.2759 18.1334 23.4667C18.1334 24.6575 17.1909 25.6 16 25.6C14.8092 25.6 13.8667 24.6575 13.8667 23.4667C13.8667 22.2759 14.8092 21.3334 16 21.3334Z" fill="black"/>
</svg>
