<svg width="32" height="32" viewBox="0 0 32 32" fill="none" xmlns="http://www.w3.org/2000/svg">
<path d="M7.46659 4.26672C6.28792 4.26672 5.33325 5.22139 5.33325 6.40006V21.3334C5.33325 22.5121 6.28792 23.4667 7.46659 23.4667V10.6667C7.46659 8.31366 9.38019 6.40006 11.7333 6.40006H22.3999C22.3999 5.22139 21.4453 4.26672 20.2666 4.26672H7.46659ZM11.7333 8.53339C10.5546 8.53339 9.59992 9.48806 9.59992 10.6667V25.6001C9.59992 26.7787 10.5546 27.7334 11.7333 27.7334H24.5333C25.7119 27.7334 26.6666 26.7787 26.6666 25.6001V10.6667C26.6666 9.48806 25.7119 8.53339 24.5333 8.53339H11.7333ZM13.8666 12.8001H22.3999C22.9887 12.8001 23.4666 13.2779 23.4666 13.8667C23.4666 14.4555 22.9887 14.9334 22.3999 14.9334H13.8666C13.2778 14.9334 12.7999 14.4555 12.7999 13.8667C12.7999 13.2779 13.2778 12.8001 13.8666 12.8001ZM13.8666 17.0667H22.3999C22.9887 17.0667 23.4666 17.5446 23.4666 18.1334C23.4666 18.7222 22.9887 19.2001 22.3999 19.2001H13.8666C13.2778 19.2001 12.7999 18.7222 12.7999 18.1334C12.7999 17.5446 13.2778 17.0667 13.8666 17.0667ZM13.8666 21.3334H22.3999C22.9887 21.3334 23.4666 21.8113 23.4666 22.4001C23.4666 22.9889 22.9887 23.4667 22.3999 23.4667H13.8666C13.2778 23.4667 12.7999 22.9889 12.7999 22.4001C12.7999 21.8113 13.2778 21.3334 13.8666 21.3334Z" fill="black"/>
</svg>
