<svg width="32" height="32" viewBox="0 0 32 32" fill="none" xmlns="http://www.w3.org/2000/svg">
<path d="M26.3541 9.37917L19.4207 2.44583C19.2202 2.2453 18.9493 2.1333 18.6666 2.1333H7.46659C6.28792 2.1333 5.33325 3.08797 5.33325 4.26663V27.7333C5.33325 28.912 6.28792 29.8666 7.46659 29.8666H24.5333C25.7119 29.8666 26.6666 28.912 26.6666 27.7333V10.1333C26.6666 9.85063 26.5546 9.5797 26.3541 9.37917ZM19.1999 22.4H10.6666C10.0778 22.4 9.59992 21.9221 9.59992 21.3333C9.59992 20.7445 10.0778 20.2666 10.6666 20.2666H19.1999C19.7887 20.2666 20.2666 20.7445 20.2666 21.3333C20.2666 21.9221 19.7887 22.4 19.1999 22.4ZM21.3333 18.1333H10.6666C10.0778 18.1333 9.59992 17.6554 9.59992 17.0666C9.59992 16.4778 10.0778 16 10.6666 16H21.3333C21.9221 16 22.3999 16.4778 22.3999 17.0666C22.3999 17.6554 21.9221 18.1333 21.3333 18.1333ZM19.1999 10.6666C18.6111 10.6666 18.1333 10.1888 18.1333 9.59997V4.16423L24.6357 10.6666H19.1999Z" fill="black"/>
</svg>
