<svg width="32" height="32" viewBox="0 0 32 32" fill="none" xmlns="http://www.w3.org/2000/svg">
<path d="M4.26662 6.40002C3.98372 6.40002 3.71241 6.51241 3.51237 6.71244C3.31233 6.91248 3.19995 7.18379 3.19995 7.46669C3.19995 7.46808 3.19995 7.46947 3.19995 7.47086V16V24.5292C3.19995 24.5306 3.19995 24.532 3.19995 24.5334C3.19995 24.8163 3.31233 25.0876 3.51237 25.2876C3.71241 25.4876 3.98372 25.6 4.26662 25.6C4.49386 25.5996 4.71502 25.5266 4.89787 25.3917H4.89995C4.90981 25.3842 4.91953 25.3766 4.92912 25.3688L16 17.3188V24.5292C15.9999 24.5306 15.9999 24.532 16 24.5334C16 24.8163 16.1123 25.0876 16.3124 25.2876C16.5124 25.4876 16.7837 25.6 17.0666 25.6C17.2939 25.5996 17.515 25.5266 17.6979 25.3917H17.7C17.7098 25.3842 17.7195 25.3766 17.7291 25.3688L29.377 16.8979C29.5273 16.8013 29.6509 16.6684 29.7365 16.5115C29.822 16.3546 29.8668 16.1787 29.8666 16C29.8665 15.825 29.8233 15.6526 29.7408 15.4982C29.6583 15.3438 29.5391 15.2121 29.3937 15.1146L17.7 6.60836C17.5165 6.47302 17.2946 6.40001 17.0666 6.40002C16.7837 6.40002 16.5124 6.51241 16.3124 6.71244C16.1123 6.91248 16 7.18379 16 7.46669C15.9999 7.46808 15.9999 7.46947 16 7.47086V14.6834L4.89995 6.60836C4.71653 6.47302 4.49457 6.40001 4.26662 6.40002Z" fill="black"/>
</svg>
