<svg width="32" height="32" viewBox="0 0 32 32" fill="none" xmlns="http://www.w3.org/2000/svg">
<path d="M10.6562 4.25623C10.444 4.25628 10.2366 4.31962 10.0606 4.43814C9.88461 4.55666 9.74794 4.72498 9.66809 4.92158C9.58825 5.11818 9.56884 5.33413 9.61237 5.54181C9.65589 5.74949 9.76037 5.93948 9.91243 6.08748L19.8249 16L9.91243 25.9125C9.81006 26.0108 9.72833 26.1285 9.67202 26.2588C9.61572 26.389 9.58597 26.5292 9.58453 26.6711C9.58308 26.813 9.60997 26.9538 9.66361 27.0852C9.71725 27.2166 9.79657 27.336 9.89692 27.4363C9.99728 27.5367 10.1166 27.616 10.248 27.6696C10.3794 27.7233 10.5202 27.7502 10.6621 27.7487C10.804 27.7473 10.9442 27.7175 11.0745 27.6612C11.2047 27.6049 11.3225 27.5232 11.4208 27.4208L22.0874 16.7541C22.2874 16.5541 22.3997 16.2828 22.3997 16C22.3997 15.7171 22.2874 15.4459 22.0874 15.2458L11.4208 4.57914C11.3214 4.47696 11.2025 4.39574 11.0712 4.34028C10.9398 4.28481 10.7987 4.25623 10.6562 4.25623Z" fill="black"/>
</svg>
