<svg width="32" height="32" viewBox="0 0 32 32" fill="none" xmlns="http://www.w3.org/2000/svg">
<path d="M16 3.19995C8.94334 3.19995 3.19995 8.94334 3.19995 16C3.19995 23.0566 8.94334 28.7999 16 28.7999C23.0566 28.7999 28.7999 23.0566 28.7999 16C28.7999 8.94334 23.0566 3.19995 16 3.19995ZM16 5.33328C16.4193 5.33328 16.8538 5.50698 17.35 5.9687C17.8461 6.43042 18.3597 7.17508 18.8 8.1437C19.0002 8.58418 19.1815 9.07598 19.3479 9.59995H12.652C12.8184 9.07598 12.9997 8.58418 13.2 8.1437C13.6402 7.17508 14.1538 6.43042 14.65 5.9687C15.1461 5.50698 15.5806 5.33328 16 5.33328ZM11.827 6.17912C11.6263 6.52141 11.4333 6.87744 11.2583 7.26245C10.9353 7.97302 10.6595 8.76045 10.425 9.59995H7.47287C8.59238 8.10914 10.0868 6.91713 11.827 6.17912ZM20.1729 6.17912C21.9131 6.91713 23.4075 8.10914 24.527 9.59995H21.5749C21.3404 8.76045 21.0646 7.97302 20.7416 7.26245C20.5666 6.87744 20.3736 6.52141 20.1729 6.17912ZM6.22287 11.7333H9.95203C9.78039 12.7487 9.66824 13.8189 9.62495 14.9333H5.38537C5.49691 13.8044 5.78869 12.7298 6.22287 11.7333ZM12.1208 11.7333H19.8791C20.0662 12.7308 20.1925 13.8049 20.2416 14.9333H11.7583C11.8074 13.8049 11.9337 12.7308 12.1208 11.7333ZM22.0479 11.7333H25.777C26.2112 12.7298 26.503 13.8044 26.6145 14.9333H22.375C22.3317 13.8189 22.2195 12.7487 22.0479 11.7333ZM5.38537 17.0666H9.62495C9.66824 18.181 9.78039 19.2512 9.95203 20.2666H6.22287C5.78869 19.2701 5.49691 18.1955 5.38537 17.0666ZM11.7583 17.0666H20.2416C20.1925 18.195 20.0662 19.2691 19.8791 20.2666H12.1208C11.9337 19.2691 11.8074 18.195 11.7583 17.0666ZM22.375 17.0666H26.6145C26.503 18.1955 26.2112 19.2701 25.777 20.2666H22.0479C22.2195 19.2512 22.3317 18.181 22.375 17.0666ZM7.47287 22.4H10.425C10.6595 23.2395 10.9353 24.0269 11.2583 24.7374C11.4333 25.1225 11.6263 25.4785 11.827 25.8208C10.0868 25.0828 8.59238 23.8908 7.47287 22.4ZM12.652 22.4H19.3479C19.1815 22.9239 19.0002 23.4157 18.8 23.8562C18.3597 24.8248 17.8461 25.5695 17.35 26.0312C16.8538 26.4929 16.4193 26.6666 16 26.6666C15.5806 26.6666 15.1461 26.4929 14.65 26.0312C14.1538 25.5695 13.6402 24.8248 13.2 23.8562C12.9997 23.4157 12.8184 22.9239 12.652 22.4ZM21.5749 22.4H24.527C23.4075 23.8908 21.9131 25.0828 20.1729 25.8208C20.3736 25.4785 20.5666 25.1225 20.7416 24.7374C21.0646 24.0269 21.3404 23.2395 21.5749 22.4Z" fill="black"/>
</svg>
