<svg width="32" height="32" viewBox="0 0 32 32" fill="none" xmlns="http://www.w3.org/2000/svg">
<path d="M16 3.19995C8.93115 3.19995 3.19995 8.93115 3.19995 16C3.19995 23.0687 8.93115 28.7999 16 28.7999C23.0687 28.7999 28.7999 23.0687 28.7999 16C28.7999 8.93115 23.0687 3.19995 16 3.19995ZM17.0666 22.4H14.9333V14.9333H17.0666V22.4ZM16 12.2666C15.1168 12.2666 14.4 11.5498 14.4 10.6666C14.4 9.78342 15.1168 9.06662 16 9.06662C16.8832 9.06662 17.6 9.78342 17.6 10.6666C17.6 11.5498 16.8832 12.2666 16 12.2666Z" fill="black"/>
</svg>
