<svg width="32" height="32" viewBox="0 0 32 32" fill="none" xmlns="http://www.w3.org/2000/svg">
<path d="M10.6645 3.19995C6.54827 3.19995 3.19995 6.55137 3.19995 10.6687V21.3354C3.19995 25.4516 6.55137 28.7999 10.6687 28.7999H21.3354C25.4516 28.7999 28.7999 25.4485 28.7999 21.3312V10.6645C28.7999 6.54827 25.4485 3.19995 21.3312 3.19995H10.6645ZM23.4666 7.46662C24.0554 7.46662 24.5333 7.94448 24.5333 8.53328C24.5333 9.12208 24.0554 9.59995 23.4666 9.59995C22.8778 9.59995 22.4 9.12208 22.4 8.53328C22.4 7.94448 22.8778 7.46662 23.4666 7.46662ZM16 9.59995C19.5296 9.59995 22.4 12.4704 22.4 16C22.4 19.5296 19.5296 22.4 16 22.4C12.4704 22.4 9.59995 19.5296 9.59995 16C9.59995 12.4704 12.4704 9.59995 16 9.59995ZM16 11.7333C14.8684 11.7333 13.7831 12.1828 12.983 12.983C12.1828 13.7831 11.7333 14.8684 11.7333 16C11.7333 17.1315 12.1828 18.2168 12.983 19.0169C13.7831 19.8171 14.8684 20.2666 16 20.2666C17.1315 20.2666 18.2168 19.8171 19.0169 19.0169C19.8171 18.2168 20.2666 17.1315 20.2666 16C20.2666 14.8684 19.8171 13.7831 19.0169 12.983C18.2168 12.1828 17.1315 11.7333 16 11.7333V11.7333Z" fill="black"/>
</svg>
