<svg width="32" height="32" viewBox="0 0 32 32" fill="none" xmlns="http://www.w3.org/2000/svg">
<path d="M27.7124 3.18953C27.6727 3.19079 27.633 3.19427 27.5937 3.19995H21.3333C21.1919 3.19795 21.0516 3.22406 20.9204 3.27677C20.7893 3.32948 20.6699 3.40773 20.5692 3.50698C20.4686 3.60622 20.3886 3.72449 20.3341 3.8549C20.2795 3.9853 20.2514 4.12525 20.2514 4.26661C20.2514 4.40797 20.2795 4.54793 20.3341 4.67833C20.3886 4.80874 20.4686 4.927 20.5692 5.02625C20.6699 5.1255 20.7893 5.20375 20.9204 5.25646C21.0516 5.30917 21.1919 5.33528 21.3333 5.33328H25.1583L14.1791 16.3124C14.0767 16.4107 13.995 16.5285 13.9387 16.6587C13.8824 16.789 13.8526 16.9292 13.8512 17.0711C13.8498 17.213 13.8766 17.3538 13.9303 17.4852C13.9839 17.6166 14.0632 17.7359 14.1636 17.8363C14.2639 17.9366 14.3833 18.016 14.5147 18.0696C14.6461 18.1232 14.7869 18.1501 14.9288 18.1487C15.0707 18.1472 15.2109 18.1175 15.3411 18.0612C15.4714 18.0049 15.5891 17.9232 15.6874 17.8208L26.6666 6.84161V10.6666C26.6646 10.808 26.6907 10.9483 26.7434 11.0795C26.7961 11.2106 26.8744 11.33 26.9736 11.4307C27.0729 11.5313 27.1911 11.6113 27.3216 11.6658C27.452 11.7204 27.5919 11.7485 27.7333 11.7485C27.8746 11.7485 28.0146 11.7204 28.145 11.6658C28.2754 11.6113 28.3937 11.5313 28.4929 11.4307C28.5922 11.33 28.6704 11.2106 28.7231 11.0795C28.7758 10.9483 28.8019 10.808 28.7999 10.6666V4.40203C28.8212 4.24846 28.8087 4.0921 28.7633 3.94384C28.718 3.79559 28.6409 3.659 28.5374 3.54358C28.4339 3.42817 28.3064 3.33671 28.164 3.27556C28.0215 3.21441 27.8674 3.18506 27.7124 3.18953ZM6.39994 7.46662C5.234 7.46662 4.2666 8.43401 4.2666 9.59995V25.5999C4.2666 26.7659 5.234 27.7333 6.39994 27.7333H22.3999C23.5659 27.7333 24.5333 26.7659 24.5333 25.5999V14.9333V12.1833L22.3999 14.3166V17.0666V25.5999H6.39994V9.59995H14.9333H17.0666H17.6833L19.8166 7.46662H17.0666H14.9333H6.39994Z" fill="black"/>
</svg>
