<svg width="32" height="32" viewBox="0 0 32 32" fill="none" xmlns="http://www.w3.org/2000/svg">
<path d="M16 3.19995C8.93115 3.19995 3.19995 8.93115 3.19995 16C3.19995 23.0687 8.93115 28.7999 16 28.7999C23.0687 28.7999 28.7999 23.0687 28.7999 16C28.7999 8.93115 23.0687 3.19995 16 3.19995ZM11.1957 8.96315C12.0938 8.96315 12.6922 9.56155 12.6922 10.3594C12.6922 11.1573 12.0938 11.7557 11.0965 11.7557C10.1984 11.7568 9.59995 11.1573 9.59995 10.3594C9.59995 9.56155 10.1984 8.96315 11.1957 8.96315ZM12.8 21.3333H9.59995V12.8H12.8V21.3333ZM23.4666 21.3333H20.4544V16.6698C20.4544 15.3802 19.6512 15.0826 19.3504 15.0826C19.0496 15.0826 18.0448 15.281 18.0448 16.6698C18.0448 16.8682 18.0448 21.3333 18.0448 21.3333H14.9333V12.8H18.0458V13.9904C18.4469 13.296 19.2501 12.8 20.7562 12.8C22.2623 12.8 23.4666 13.9904 23.4666 16.6698V21.3333Z" fill="black"/>
</svg>
