<svg width="32" height="32" viewBox="0 0 32 32" fill="none" xmlns="http://www.w3.org/2000/svg">
<path d="M3.19995 5.33337V9.60004H7.46662V5.33337H3.19995ZM12.8 6.40004C12.6586 6.39804 12.5183 6.42416 12.3871 6.47686C12.2559 6.52957 12.1366 6.60782 12.0359 6.70707C11.9352 6.80632 11.8553 6.92458 11.8007 7.05499C11.7462 7.1854 11.7181 7.32535 11.7181 7.46671C11.7181 7.60807 11.7462 7.74802 11.8007 7.87843C11.8553 8.00883 11.9352 8.1271 12.0359 8.22634C12.1366 8.32559 12.2559 8.40384 12.3871 8.45655C12.5183 8.50926 12.6586 8.53537 12.8 8.53337H27.7333C27.8746 8.53537 28.015 8.50926 28.1461 8.45655C28.2773 8.40384 28.3967 8.32559 28.4973 8.22634C28.598 8.1271 28.6779 8.00883 28.7325 7.87843C28.787 7.74802 28.8151 7.60807 28.8151 7.46671C28.8151 7.32535 28.787 7.1854 28.7325 7.05499C28.6779 6.92458 28.598 6.80632 28.4973 6.70707C28.3967 6.60782 28.2773 6.52957 28.1461 6.47686C28.015 6.42416 27.8746 6.39804 27.7333 6.40004H12.8ZM3.19995 13.8667V18.1334H7.46662V13.8667H3.19995ZM12.8 14.9334C12.6586 14.9314 12.5183 14.9575 12.3871 15.0102C12.2559 15.0629 12.1366 15.1412 12.0359 15.2404C11.9352 15.3397 11.8553 15.4579 11.8007 15.5883C11.7462 15.7187 11.7181 15.8587 11.7181 16C11.7181 16.1414 11.7462 16.2814 11.8007 16.4118C11.8553 16.5422 11.9352 16.6604 12.0359 16.7597C12.1366 16.8589 12.2559 16.9372 12.3871 16.9899C12.5183 17.0426 12.6586 17.0687 12.8 17.0667H27.7333C27.8746 17.0687 28.015 17.0426 28.1461 16.9899C28.2773 16.9372 28.3967 16.8589 28.4973 16.7597C28.598 16.6604 28.6779 16.5422 28.7325 16.4118C28.787 16.2814 28.8151 16.1414 28.8151 16C28.8151 15.8587 28.787 15.7187 28.7325 15.5883C28.6779 15.4579 28.598 15.3397 28.4973 15.2404C28.3967 15.1412 28.2773 15.0629 28.1461 15.0102C28.015 14.9575 27.8746 14.9314 27.7333 14.9334H12.8ZM3.19995 22.4V26.6667H7.46662V22.4H3.19995ZM12.8 23.4667C12.6586 23.4647 12.5183 23.4908 12.3871 23.5435C12.2559 23.5962 12.1366 23.6745 12.0359 23.7737C11.9352 23.873 11.8553 23.9912 11.8007 24.1217C11.7462 24.2521 11.7181 24.392 11.7181 24.5334C11.7181 24.6747 11.7462 24.8147 11.8007 24.9451C11.8553 25.0755 11.9352 25.1938 12.0359 25.293C12.1366 25.3923 12.2559 25.4705 12.3871 25.5232C12.5183 25.5759 12.6586 25.602 12.8 25.6H27.7333C27.8746 25.602 28.015 25.5759 28.1461 25.5232C28.2773 25.4705 28.3967 25.3923 28.4973 25.293C28.598 25.1938 28.6779 25.0755 28.7325 24.9451C28.787 24.8147 28.8151 24.6747 28.8151 24.5334C28.8151 24.392 28.787 24.2521 28.7325 24.1217C28.6779 23.9912 28.598 23.873 28.4973 23.7737C28.3967 23.6745 28.2773 23.5962 28.1461 23.5435C28.015 23.4908 27.8746 23.4647 27.7333 23.4667H12.8Z" fill="black"/>
</svg>
