<svg width="32" height="32" viewBox="0 0 32 32" fill="none" xmlns="http://www.w3.org/2000/svg">
<path d="M15.9999 2.13342C11.8886 2.13342 8.53327 5.4888 8.53327 9.60009V11.7334H6.39993C5.22127 11.7334 4.2666 12.6881 4.2666 13.8668V26.6668C4.2666 27.8454 5.22127 28.8001 6.39993 28.8001H25.5999C26.7786 28.8001 27.7333 27.8454 27.7333 26.6668V13.8668C27.7333 12.6881 26.7786 11.7334 25.5999 11.7334H23.4666V9.60009C23.4666 5.62311 20.3056 2.41989 16.3791 2.21051C16.2585 2.16191 16.13 2.13579 15.9999 2.13342ZM15.9999 4.26676C18.9585 4.26676 21.3333 6.64151 21.3333 9.60009V11.7334H10.6666V9.60009C10.6666 6.64151 13.0414 4.26676 15.9999 4.26676Z" fill="black"/>
</svg>
