<svg width="32" height="32" viewBox="0 0 32 32" fill="none" xmlns="http://www.w3.org/2000/svg">
<path d="M4.26663 4.26672C4.12811 4.26719 3.98996 4.28114 3.85413 4.30839C3.84284 4.31066 3.83204 4.31427 3.8208 4.31672C3.34371 4.41868 2.91597 4.68108 2.6089 5.06018C2.30182 5.43929 2.13396 5.91219 2.1333 6.40006V19.2001C2.13376 19.3386 2.14772 19.4767 2.17497 19.6126C2.17724 19.6239 2.18085 19.6347 2.1833 19.6459C2.28526 20.123 2.54766 20.5507 2.92676 20.8578C3.30587 21.1649 3.77877 21.3327 4.26663 21.3334H27.7333C27.8718 21.3329 28.01 21.319 28.1458 21.2917C28.1571 21.2895 28.1679 21.2858 28.1791 21.2834C28.6562 21.1814 29.084 20.919 29.391 20.5399C29.6981 20.1608 29.866 19.6879 29.8666 19.2001V6.40006C29.8662 6.26153 29.8522 6.12338 29.825 5.98756C29.8227 5.97626 29.8191 5.96546 29.8166 5.95422C29.7147 5.47713 29.4523 5.04939 29.0732 4.74232C28.6941 4.43524 28.2212 4.26739 27.7333 4.26672H4.26663ZM6.39997 6.40006H25.6C25.6 6.96585 25.8247 7.50847 26.2248 7.90855C26.6249 8.30863 27.1675 8.53339 27.7333 8.53339V17.0667C27.1675 17.0667 26.6249 17.2915 26.2248 17.6916C25.8247 18.0916 25.6 18.6343 25.6 19.2001H6.39997C6.39997 18.6343 6.17521 18.0916 5.77513 17.6916C5.37505 17.2915 4.83243 17.0667 4.26663 17.0667V8.53339C4.83243 8.53339 5.37505 8.30863 5.77513 7.90855C6.17521 7.50847 6.39997 6.96585 6.39997 6.40006ZM16 8.53339C13.6437 8.53339 11.7333 10.6827 11.7333 13.3334C11.7333 14.8502 12.3708 16.1867 13.3479 17.0667H18.6521C19.6291 16.1867 20.2666 14.8502 20.2666 13.3334C20.2666 10.6827 18.3562 8.53339 16 8.53339ZM7.46663 11.7334C7.18374 11.7334 6.91243 11.8458 6.71239 12.0458C6.51235 12.2458 6.39997 12.5172 6.39997 12.8001C6.39997 13.083 6.51235 13.3543 6.71239 13.5543C6.91243 13.7543 7.18374 13.8667 7.46663 13.8667C7.74953 13.8667 8.02084 13.7543 8.22088 13.5543C8.42092 13.3543 8.5333 13.083 8.5333 12.8001C8.5333 12.5172 8.42092 12.2458 8.22088 12.0458C8.02084 11.8458 7.74953 11.7334 7.46663 11.7334ZM24.5333 11.7334C24.2504 11.7334 23.9791 11.8458 23.7791 12.0458C23.579 12.2458 23.4666 12.5172 23.4666 12.8001C23.4666 13.083 23.579 13.3543 23.7791 13.5543C23.9791 13.7543 24.2504 13.8667 24.5333 13.8667C24.8162 13.8667 25.0875 13.7543 25.2876 13.5543C25.4876 13.3543 25.6 13.083 25.6 12.8001C25.6 12.5172 25.4876 12.2458 25.2876 12.0458C25.0875 11.8458 24.8162 11.7334 24.5333 11.7334ZM27.7166 23.4521C27.665 23.4533 27.6134 23.4581 27.5625 23.4667H26.6666V24.5334V25.6001C25.772 25.6001 25.0087 26.1508 24.6916 26.9313C23.6724 26.5517 22.3969 26.1035 20.7458 25.6396C16.871 24.551 11.3094 23.4667 4.26663 23.4667C4.12529 23.4647 3.98495 23.4908 3.85379 23.5435C3.72262 23.5963 3.60324 23.6745 3.50258 23.7738C3.40192 23.873 3.32199 23.9913 3.26743 24.1217C3.21287 24.2521 3.18478 24.392 3.18478 24.5334C3.18478 24.6747 3.21287 24.8147 3.26743 24.9451C3.32199 25.0755 3.40192 25.1938 3.50258 25.293C3.60324 25.3923 3.72262 25.4705 3.85379 25.5232C3.98495 25.5759 4.12529 25.6021 4.26663 25.6001C11.0906 25.6001 16.4502 26.6491 20.1687 27.6938C22.028 28.2162 23.4745 28.7367 24.4979 29.1292C25.0096 29.3255 25.4149 29.4894 25.725 29.6105C25.88 29.671 26.0085 29.7204 26.1333 29.7626C26.2429 29.7996 26.3175 29.8462 26.5791 29.8584C26.6089 29.8611 26.6366 29.8771 26.6666 29.8771C27.8145 29.8771 28.7326 28.9696 28.7896 27.8417C28.7965 27.792 28.8 27.7419 28.8 27.6917V25.6001V24.5334V23.4667H27.8979C27.838 23.4567 27.7774 23.4518 27.7166 23.4521Z" fill="black"/>
</svg>
