<svg width="32" height="32" viewBox="0 0 32 32" fill="none" xmlns="http://www.w3.org/2000/svg">
<path d="M10.6666 2.1333C9.48795 2.1333 8.53328 3.08797 8.53328 4.26663V13.8666C7.94448 13.8666 7.46662 14.3445 7.46662 14.9333C7.46662 15.5221 7.94448 16 8.53328 16H23.4666C24.0554 16 24.5333 15.5221 24.5333 14.9333C24.5333 14.3445 24.0554 13.8666 23.4666 13.8666V4.26663C23.4666 3.08797 22.5119 2.1333 21.3333 2.1333H13.8666V14.9333H11.7333V2.1333H10.6666ZM5.33328 5.3333C4.15462 5.3333 3.19995 6.28797 3.19995 7.46663V21.3333C3.19995 22.512 4.15462 23.4666 5.33328 23.4666H26.6666C27.8453 23.4666 28.7999 22.512 28.7999 21.3333V7.46663C28.7999 6.28797 27.8453 5.3333 26.6666 5.3333H25.5999V7.46663H26.6666V19.2H5.33328V7.46663H6.39995V5.3333H5.33328ZM16 20.2666C16.5887 20.2666 17.0666 20.7445 17.0666 21.3333C17.0666 21.9221 16.5887 22.4 16 22.4C15.4112 22.4 14.9333 21.9221 14.9333 21.3333C14.9333 20.7445 15.4112 20.2666 16 20.2666ZM10.6666 25.6C10.5253 25.598 10.3849 25.6241 10.2538 25.6768C10.1226 25.7295 10.0032 25.8077 9.90256 25.907C9.8019 26.0062 9.72197 26.1245 9.66741 26.2549C9.61285 26.3853 9.58476 26.5253 9.58476 26.6666C9.58476 26.808 9.61285 26.9479 9.66741 27.0784C9.72197 27.2088 9.8019 27.327 9.90256 27.4263C10.0032 27.5255 10.1226 27.6038 10.2538 27.6565C10.3849 27.7092 10.5253 27.7353 10.6666 27.7333H21.3333C21.4746 27.7353 21.615 27.7092 21.7461 27.6565C21.8773 27.6038 21.9967 27.5255 22.0973 27.4263C22.198 27.327 22.2779 27.2088 22.3325 27.0784C22.387 26.9479 22.4151 26.808 22.4151 26.6666C22.4151 26.5253 22.387 26.3853 22.3325 26.2549C22.2779 26.1245 22.198 26.0062 22.0973 25.907C21.9967 25.8077 21.8773 25.7295 21.7461 25.6768C21.615 25.6241 21.4746 25.598 21.3333 25.6H10.6666Z" fill="black"/>
</svg>
