<svg width="32" height="32" viewBox="0 0 32 32" fill="none" xmlns="http://www.w3.org/2000/svg">
<path d="M16 4.26672C11.5349 4.26672 5.73955 5.38547 5.73955 5.38547L5.72497 5.40214C3.69134 5.72738 2.1333 7.47486 2.1333 9.60006V16.0001V16.0021V22.4001V22.4021C2.13529 23.4171 2.49903 24.3981 3.15922 25.1691C3.81941 25.94 4.7328 26.4503 5.73538 26.6084L5.73955 26.6146C5.73955 26.6146 11.5349 27.7355 16 27.7355C20.465 27.7355 26.2604 26.6146 26.2604 26.6146L26.2625 26.6126C27.2661 26.4548 28.1806 25.9441 28.8413 25.1722C29.502 24.4004 29.8656 23.4181 29.8666 22.4021V22.4001V16.0021V16.0001V9.60006C29.8651 8.58473 29.5016 7.60321 28.8414 6.83185C28.1812 6.0605 27.2675 5.54987 26.2646 5.39172L26.2604 5.38547C26.2604 5.38547 20.465 4.26672 16 4.26672ZM12.8 11.0917L21.3333 16.0001L12.8 20.9084V11.0917Z" fill="black"/>
</svg>
