<svg width="32" height="32" viewBox="0 0 32 32" fill="none" xmlns="http://www.w3.org/2000/svg">
<path d="M18.1334 2.1333C17.942 2.13352 17.7541 2.18528 17.5895 2.28315C17.4249 2.38103 17.2897 2.52141 17.198 2.68955L8.71886 16.4625V16.4646C8.59785 16.642 8.53323 16.8518 8.53345 17.0666C8.53345 17.3495 8.64583 17.6208 8.84587 17.8209C9.04591 18.0209 9.31722 18.1333 9.60011 18.1333H15.4668L13.8876 28.5875C13.8736 28.6574 13.8666 28.7286 13.8668 28.8C13.8668 29.0829 13.9792 29.3542 14.1792 29.5542C14.3792 29.7543 14.6505 29.8666 14.9334 29.8666C15.1273 29.8663 15.3173 29.8132 15.4833 29.713C15.6492 29.6128 15.7846 29.4693 15.8751 29.2979H15.8772L24.3272 15.5625L24.3168 15.5437C24.443 15.3685 24.5334 15.1656 24.5334 14.9333C24.5334 14.3445 24.0556 13.8666 23.4668 13.8666H17.6001L19.1522 3.51455C19.1838 3.41268 19.2 3.30663 19.2001 3.19997C19.2001 2.91707 19.0877 2.64576 18.8877 2.44572C18.6877 2.24568 18.4163 2.1333 18.1334 2.1333Z" fill="black"/>
</svg>
