<svg width="32" height="32" viewBox="0 0 32 32" fill="none" xmlns="http://www.w3.org/2000/svg">
<path d="M16 3.19995C8.3413 3.19995 2.1333 8.45328 2.1333 14.9333C2.1333 18.5258 4.04618 21.737 7.05205 23.8895C7.1288 25.5279 6.87493 27.7902 4.61455 28.8333C4.61316 28.834 4.61177 28.8347 4.61038 28.8354C4.5094 28.8738 4.42245 28.9419 4.36107 29.0309C4.29968 29.1198 4.26675 29.2252 4.26663 29.3333C4.26663 29.4747 4.32282 29.6104 4.42284 29.7104C4.52286 29.8104 4.65852 29.8666 4.79997 29.8666C4.81527 29.8666 4.83056 29.8659 4.8458 29.8645C7.4421 29.8479 9.64613 28.4448 11.1666 26.9625C11.6488 26.4921 12.3209 26.2606 12.9833 26.3854C13.954 26.5699 14.9632 26.6666 16 26.6666C23.6586 26.6666 29.8666 21.4133 29.8666 14.9333C29.8666 8.45328 23.6586 3.19995 16 3.19995ZM11.7333 10.6666H12.8C13.9786 10.6666 14.9333 11.6213 14.9333 12.8V13.8666C14.9333 18.6538 12.4888 20.0144 12.2104 20.1541C12.0579 20.2299 11.8954 20.2666 11.7354 20.2666C11.3439 20.2666 10.9669 20.0514 10.7791 19.677C10.5157 19.1501 10.7293 18.5093 11.2562 18.2458C11.285 18.2287 12.14 17.7151 12.5646 16H11.7333C10.5546 16 9.59997 15.0453 9.59997 13.8666V12.8C9.59997 11.6213 10.5546 10.6666 11.7333 10.6666ZM19.2 10.6666H20.2666C21.4453 10.6666 22.4 11.6213 22.4 12.8V13.8666C22.4 18.6538 19.9555 20.0144 19.6771 20.1541C19.5245 20.2299 19.3621 20.2666 19.2021 20.2666C18.8106 20.2666 18.4335 20.0514 18.2458 19.677C17.9823 19.1501 18.196 18.5093 18.7229 18.2458C18.7517 18.2287 19.6067 17.7151 20.0312 16H19.2C18.0213 16 17.0666 15.0453 17.0666 13.8666V12.8C17.0666 11.6213 18.0213 10.6666 19.2 10.6666Z" fill="black"/>
</svg>
