<svg width="32" height="32" viewBox="0 0 32 32" fill="none" xmlns="http://www.w3.org/2000/svg">
<path d="M27.6779 17.1018C27.712 16.7392 27.7334 16.3722 27.7334 16C27.7334 15.6277 27.712 15.2608 27.6779 14.8981C28.2635 14.8074 28.6891 14.2656 28.5771 13.6618C27.6182 8.47036 23.5307 4.38289 18.3392 3.42396C17.7355 3.31196 17.1936 3.73756 17.103 4.32316C17.0902 4.32102 17.0784 4.32209 17.0667 4.32102V5.33329C17.0667 5.92209 16.5888 6.39996 16 6.39996C15.4112 6.39996 14.9334 5.92209 14.9334 5.33329V4.32102C14.9216 4.32209 14.9099 4.32209 14.8982 4.32316C14.8075 3.73756 14.2656 3.31196 13.6619 3.42396C8.47045 4.38289 4.38191 8.47036 3.42405 13.6618C3.31205 14.2656 3.73765 14.8074 4.32325 14.8981C4.32218 14.913 5.38885 14.929 5.38778 14.944C5.94991 14.9738 6.40005 15.4293 6.40005 16C6.40005 16.5696 5.94991 17.0261 5.38671 17.056C5.38778 17.0709 4.32111 17.0869 4.32218 17.1018C3.73658 17.1925 3.31098 17.7344 3.42298 18.3381C4.38191 23.5296 8.46938 27.617 13.6608 28.576C14.2646 28.688 14.8064 28.2624 14.8971 27.6768C15.2608 27.712 15.6278 27.7333 16 27.7333C16.3723 27.7333 16.7392 27.712 17.1019 27.6778C17.1926 28.2634 17.7344 28.689 18.3382 28.577C23.5296 27.6181 27.6182 23.5296 28.576 18.3392C28.688 17.7344 28.2635 17.1925 27.6779 17.1018ZM24.5334 17.0666H24.448H23.1446C22.687 17.0666 22.2646 17.3546 22.1366 17.7941C21.5275 19.8826 19.8827 21.5274 17.7942 22.1365C17.3547 22.2656 17.0667 22.6869 17.0667 23.1456V23.3824V24.5333C17.0667 25.1221 16.5888 25.6 16 25.6C15.4112 25.6 14.9334 25.1221 14.9334 24.5333V23.3813V23.1445C14.9334 22.6869 14.6454 22.2645 14.2059 22.1365C12.1174 21.5274 10.4726 19.8826 9.86351 17.7941C9.73445 17.3546 9.31311 17.0666 8.85445 17.0666H8.61871C8.56858 16.7168 8.53338 16.3626 8.53338 16C8.53338 15.6373 8.56858 15.2832 8.61871 14.9333H8.85551C9.31311 14.9333 9.73551 14.6453 9.86351 14.2058C10.4726 12.1173 12.1174 10.4725 14.2059 9.86342C14.6454 9.73436 14.9334 9.31302 14.9334 8.85436V8.61862C15.2832 8.56849 15.6374 8.53329 16 8.53329C16.3627 8.53329 16.7168 8.56849 17.0667 8.61862V8.85542C17.0667 9.31302 17.3547 9.73542 17.7942 9.86342C19.8827 10.4725 21.5275 12.1173 22.1366 14.2058C22.2656 14.6453 22.687 14.9333 23.1456 14.9333H24.4491H24.5334C25.1222 14.9333 25.6 15.4112 25.6 16C25.6 16.5888 25.1222 17.0666 24.5334 17.0666Z" fill="black"/>
</svg>
