<svg width="32" height="32" viewBox="0 0 32 32" fill="none" xmlns="http://www.w3.org/2000/svg">
<path d="M6.39998 3.19995C5.22132 3.19995 4.26665 4.15462 4.26665 5.33328V6.39995L1.06665 10.6666C1.06665 11.8453 2.02132 12.8 3.19998 12.8C4.37865 12.8 5.33332 11.8453 5.33332 10.6666L7.46665 6.39995H10.6666L9.59998 10.6666C9.59998 11.8453 10.5546 12.8 11.7333 12.8C12.912 12.8 13.8666 11.8453 13.8666 10.6666V6.39995H18.1333V10.6666C18.1333 11.8453 19.088 12.8 20.2666 12.8C20.414 12.8 20.5569 12.7846 20.6958 12.7562C21.6682 12.5574 22.4 11.698 22.4 10.6666L21.3333 6.39995H24.5333L26.6666 10.6666C26.6666 11.8453 27.6213 12.8 28.8 12.8C29.9786 12.8 30.9333 11.8453 30.9333 10.6666L27.7333 6.39995V5.33328C27.7333 4.15462 26.7786 3.19995 25.6 3.19995H6.39998ZM13.8666 14.3395C13.2362 14.7065 12.5141 14.9333 11.7333 14.9333C10.9546 14.9333 10.2356 14.7075 9.60623 14.3416C8.97583 14.7107 8.24852 14.9333 7.46665 14.9333C6.69118 14.9333 5.97302 14.7085 5.34582 14.3458C4.71435 14.7159 3.98292 14.9333 3.19998 14.9333V26.6666C3.19998 27.8453 4.15465 28.7999 5.33332 28.7999H18.1333V18.1333H24.5333V28.7999H26.6666C27.8453 28.7999 28.8 27.8453 28.8 26.6666V14.9333C28.017 14.9333 27.2856 14.7159 26.6541 14.3458C26.0269 14.7085 25.3088 14.9333 24.5333 14.9333C23.7514 14.9333 23.0241 14.7107 22.3937 14.3416C21.7644 14.7075 21.0453 14.9333 20.2666 14.9333C19.4858 14.9333 18.7637 14.7065 18.1333 14.3395C17.5029 14.7065 16.7808 14.9333 16 14.9333C15.2192 14.9333 14.497 14.7065 13.8666 14.3395ZM7.46665 18.1333H13.8666V24.5333H7.46665V18.1333Z" fill="black"/>
</svg>
