<svg width="32" height="32" viewBox="0 0 32 32" fill="none" xmlns="http://www.w3.org/2000/svg">
<path d="M8.53325 3.19995C7.55296 3.19995 6.73539 3.86417 6.48534 4.76453H6.477L5.33325 8.53328C5.33325 9.71195 6.28792 10.6666 7.46659 10.6666C8.64525 10.6666 9.59992 9.71195 9.59992 8.53328C9.59992 9.71195 10.5546 10.6666 11.7333 10.6666C12.9119 10.6666 13.8666 9.71195 13.8666 8.53328C13.8666 9.71195 14.8213 10.6666 15.9999 10.6666C17.1786 10.6666 18.1333 9.71195 18.1333 8.53328C18.1333 9.71195 19.0879 10.6666 20.2666 10.6666C21.4453 10.6666 22.3999 9.71195 22.3999 8.53328C22.3999 9.71195 23.3546 10.6666 24.5333 10.6666C25.7119 10.6666 26.6666 9.71195 26.6666 8.53328L25.5228 4.76453H25.5145C25.2644 3.86417 24.4469 3.19995 23.4666 3.19995H8.53325ZM8.51659 12.7854C8.23405 12.7898 7.96481 12.9061 7.76796 13.1088C7.5711 13.3115 7.46272 13.5841 7.46659 13.8666V25.5999C7.46659 27.3546 8.91195 28.7999 10.6666 28.7999H21.3333C23.0879 28.7999 24.5333 27.3546 24.5333 25.5999V13.8666C24.5352 13.7253 24.5091 13.5849 24.4564 13.4538C24.4037 13.3226 24.3255 13.2032 24.2262 13.1026C24.127 13.0019 24.0087 12.922 23.8783 12.8674C23.7479 12.8129 23.6079 12.7848 23.4666 12.7848C23.3252 12.7848 23.1853 12.8129 23.0549 12.8674C22.9245 12.922 22.8062 13.0019 22.7069 13.1026C22.6077 13.2032 22.5294 13.3226 22.4767 13.4538C22.424 13.5849 22.3979 13.7253 22.3999 13.8666V25.5999C22.3999 26.2026 21.9359 26.6666 21.3333 26.6666H10.6666C10.0639 26.6666 9.59992 26.2026 9.59992 25.5999V13.8666C9.60187 13.7239 9.57517 13.5823 9.52139 13.4501C9.46762 13.3179 9.38786 13.1978 9.28684 13.097C9.18582 12.9961 9.0656 12.9166 8.9333 12.8631C8.80099 12.8096 8.65929 12.7831 8.51659 12.7854ZM15.9999 22.4C15.717 22.4 15.4457 22.5123 15.2457 22.7124C15.0456 22.9124 14.9333 23.1837 14.9333 23.4666C14.9333 23.7495 15.0456 24.0208 15.2457 24.2209C15.4457 24.4209 15.717 24.5333 15.9999 24.5333C16.2828 24.5333 16.5541 24.4209 16.7542 24.2209C16.9542 24.0208 17.0666 23.7495 17.0666 23.4666C17.0666 23.1837 16.9542 22.9124 16.7542 22.7124C16.5541 22.5123 16.2828 22.4 15.9999 22.4Z" fill="black"/>
</svg>
