<svg width="32" height="32" viewBox="0 0 32 32" fill="none" xmlns="http://www.w3.org/2000/svg">
<path d="M16 3.19995C8.94345 3.19995 3.19995 8.94345 3.19995 16C3.19995 23.0564 8.94345 28.7999 16 28.7999C18.7252 28.7999 21.2444 27.9268 23.3104 26.4729C23.5419 26.3101 23.6993 26.0621 23.7479 25.7834C23.7966 25.5046 23.7325 25.2179 23.5697 24.9864C23.407 24.7549 23.159 24.5975 22.8802 24.5489C22.6015 24.5002 22.3148 24.5643 22.0833 24.727C20.354 25.944 18.271 26.6666 16 26.6666C10.0964 26.6666 5.33328 21.9035 5.33328 16C5.33328 10.0964 10.0964 5.33328 16 5.33328C18.271 5.33328 20.354 6.05587 22.0833 7.27287C22.1979 7.35344 22.3273 7.41064 22.464 7.44121C22.6008 7.47178 22.7422 7.47512 22.8802 7.45104C23.0183 7.42695 23.1502 7.37591 23.2685 7.30084C23.3868 7.22577 23.4892 7.12813 23.5697 7.01349C23.6503 6.89886 23.7075 6.76948 23.7381 6.63274C23.7687 6.496 23.772 6.35458 23.7479 6.21655C23.7238 6.07852 23.6728 5.94658 23.5977 5.82827C23.5226 5.70997 23.425 5.60761 23.3104 5.52703C21.2444 4.0731 18.7252 3.19995 16 3.19995ZM24.5229 10.6562C24.3107 10.6563 24.1033 10.7196 23.9273 10.8381C23.7513 10.9566 23.6146 11.125 23.5348 11.3216C23.4549 11.5182 23.4355 11.7341 23.4791 11.9418C23.5226 12.1495 23.6271 12.3395 23.7791 12.4875L26.2249 14.9333H14.9333C14.7919 14.9313 14.6516 14.9574 14.5204 15.0101C14.3893 15.0628 14.2699 15.1411 14.1692 15.2403C14.0686 15.3396 13.9886 15.4578 13.9341 15.5882C13.8795 15.7186 13.8514 15.8586 13.8514 16C13.8514 16.1413 13.8795 16.2813 13.9341 16.4117C13.9886 16.5421 14.0686 16.6603 14.1692 16.7596C14.2699 16.8588 14.3893 16.9371 14.5204 16.9898C14.6516 17.0425 14.7919 17.0686 14.9333 17.0666H26.2249L23.7791 19.5125C23.6767 19.6107 23.595 19.7285 23.5387 19.8587C23.4824 19.989 23.4527 20.1292 23.4512 20.2711C23.4498 20.413 23.4767 20.5538 23.5303 20.6852C23.5839 20.8166 23.6633 20.9359 23.7636 21.0363C23.864 21.1366 23.9833 21.216 24.1147 21.2696C24.2461 21.3232 24.3869 21.3501 24.5288 21.3487C24.6707 21.3472 24.8109 21.3175 24.9412 21.2612C25.0714 21.2049 25.1892 21.1232 25.2874 21.0208L29.4604 16.8479C29.591 16.7482 29.6969 16.6196 29.7697 16.4723C29.8426 16.3249 29.8803 16.1628 29.8801 15.9984C29.8799 15.834 29.8418 15.6719 29.7686 15.5248C29.6954 15.3776 29.5892 15.2493 29.4583 15.15L25.2874 10.9791C25.188 10.8769 25.0692 10.7957 24.9379 10.7403C24.8065 10.6848 24.6654 10.6562 24.5229 10.6562Z" fill="black"/>
</svg>
