<svg width="48" height="48" viewBox="0 0 48 48" fill="none" xmlns="http://www.w3.org/2000/svg">
<path d="M24 46C36.1496 46 46 36.1496 46 24C46 11.8504 36.1496 2 24 2C11.8504 2 2 11.8504 2 24C2 36.1496 11.8504 46 24 46Z" fill="url(#paint0_linear)" stroke="white" stroke-width="4"/>
<path opacity="0.05" d="M10.1189 23.4659C18.2739 19.7709 27.8519 15.7619 29.3269 15.1819C32.5789 13.9029 33.9969 15.2099 33.7749 17.2949C33.5019 19.8499 32.2079 27.2849 31.4119 32.6119C30.9459 35.7289 29.2579 36.6839 27.3529 35.4749C25.9079 34.5579 20.9399 31.3049 19.6329 30.1929C18.7419 29.4349 18.1209 28.5849 18.7529 27.7189C18.9379 27.4659 19.4109 26.9559 19.6739 26.7019C20.9929 25.4239 20.8149 25.1489 19.2199 26.2899C19.0299 26.4259 17.9279 27.2249 17.4749 27.5269C16.3649 28.2669 15.3439 28.3069 13.6129 27.7189C12.1969 27.2379 10.8369 26.8669 9.97892 26.4959C8.79392 25.9829 8.33992 24.2719 10.1189 23.4659Z" fill="black"/>
<path opacity="0.07" d="M10.836 23.5911C18.408 20.2061 27.72 16.3271 29.082 15.7781C32.346 14.4601 33.547 15.2421 33.196 17.7891C32.87 20.1471 31.713 27.4431 30.902 32.3341C30.424 35.2131 29.028 35.8471 27.21 34.6711C26.071 33.9371 21.487 30.9171 20.375 30.0381C19.515 29.3591 18.624 28.5751 19.665 27.4401C20.013 27.0611 21.935 25.2061 23.372 23.8261C24.205 23.0251 23.908 22.6301 22.903 23.3181C21.06 24.5811 18.045 26.5801 17.507 26.9431C16.482 27.6331 15.519 27.7991 13.843 27.2721C12.522 26.8561 11.246 26.4531 10.581 26.1941C9.09498 25.6181 9.07498 24.3781 10.836 23.5911Z" fill="black"/>
<path d="M11.553 23.717C18.543 20.642 27.588 16.893 28.837 16.374C32.112 15.016 33.117 15.276 32.616 18.284C32.256 20.446 31.218 27.603 30.39 32.058C29.899 34.7 28.797 35.013 27.065 33.87C26.232 33.32 22.027 30.539 21.114 29.886C20.281 29.291 19.132 28.575 20.573 27.165C21.086 26.663 24.447 23.453 27.066 20.955C27.409 20.627 26.978 20.088 26.582 20.351C23.052 22.692 18.158 25.941 17.535 26.364C16.594 27.003 15.69 27.296 14.068 26.83C12.842 26.478 11.645 26.058 11.179 25.898C9.38401 25.282 9.81001 24.484 11.553 23.717Z" fill="white"/>
<defs>
<linearGradient id="paint0_linear" x1="9.858" y1="9.858" x2="38.142" y2="38.142" gradientUnits="userSpaceOnUse">
<stop stop-color="#33BEF0"/>
<stop offset="1" stop-color="#0A85D9"/>
</linearGradient>
</defs>
</svg>
