<svg width="32" height="32" viewBox="0 0 32 32" fill="none" xmlns="http://www.w3.org/2000/svg">
<path d="M24.5333 3.19995V6.39995H4.26667C4.12533 6.39795 3.98499 6.42407 3.85383 6.47677C3.72266 6.52948 3.60328 6.60773 3.50262 6.70698C3.40196 6.80623 3.32202 6.92449 3.26747 7.0549C3.21291 7.18531 3.18481 7.32526 3.18481 7.46662C3.18481 7.60798 3.21291 7.74793 3.26747 7.87834C3.32202 8.00874 3.40196 8.12701 3.50262 8.22625C3.60328 8.3255 3.72266 8.40375 3.85383 8.45646C3.98499 8.50917 4.12533 8.53528 4.26667 8.53328H24.5333V11.7333L28.8 7.46662L24.5333 3.19995ZM7.46667 20.2666L3.20001 24.5333L7.46667 28.7999V25.5999H27.7333C27.8747 25.6019 28.015 25.5758 28.1462 25.5231C28.2773 25.4704 28.3967 25.3922 28.4974 25.2929C28.5981 25.1937 28.678 25.0754 28.7325 24.945C28.7871 24.8146 28.8152 24.6746 28.8152 24.5333C28.8152 24.3919 28.7871 24.252 28.7325 24.1216C28.678 23.9912 28.5981 23.8729 28.4974 23.7736C28.3967 23.6744 28.2773 23.5961 28.1462 23.5434C28.015 23.4907 27.8747 23.4646 27.7333 23.4666H7.46667V20.2666Z" fill="black"/>
</svg>
