<svg width="32" height="32" viewBox="0 0 32 32" fill="none" xmlns="http://www.w3.org/2000/svg">
<g clip-path="url(#clip0)">
<path d="M3.20006 5.33337C2.02139 5.33337 1.06672 6.28804 1.06672 7.46671V22.4C0.925376 22.398 0.785042 22.4242 0.653876 22.4769C0.52271 22.5296 0.403327 22.6078 0.302666 22.7071C0.202005 22.8063 0.122074 22.9246 0.067516 23.055C0.0129584 23.1854 -0.0151367 23.3253 -0.0151367 23.4667C-0.0151367 23.6081 0.0129584 23.748 0.067516 23.8784C0.122074 24.0088 0.202005 24.1271 0.302666 24.2263C0.403327 24.3256 0.52271 24.4038 0.653876 24.4566C0.785042 24.5093 0.925376 24.5354 1.06672 24.5334H3.20006H4.32089C4.58478 26.3311 6.13346 27.7334 8.00006 27.7334C9.86665 27.7334 11.4153 26.3311 11.6792 24.5334H19.2001H21.3876C21.6514 26.3311 23.2001 27.7334 25.0667 27.7334C26.9333 27.7334 28.482 26.3311 28.7459 24.5334H30.9334C31.0747 24.5354 31.2151 24.5093 31.3462 24.4566C31.4774 24.4038 31.5968 24.3256 31.6974 24.2263C31.7981 24.1271 31.878 24.0088 31.9326 23.8784C31.9872 23.748 32.0152 23.6081 32.0152 23.4667C32.0152 23.3253 31.9872 23.1854 31.9326 23.055C31.878 22.9246 31.7981 22.8063 31.6974 22.7071C31.5968 22.6078 31.4774 22.5296 31.3462 22.4769C31.2151 22.4242 31.0747 22.398 30.9334 22.4V17.0667H24.5334V12.8C24.5334 12.2112 25.0113 11.7334 25.6001 11.7334H28.648L28.2876 10.8938C27.9516 10.1098 27.1805 9.60004 26.3271 9.60004H19.2001V7.46671C19.2001 6.28804 18.2454 5.33337 17.0667 5.33337H3.20006ZM8.00006 22.4C8.89635 22.4 9.60006 23.1038 9.60006 24C9.60006 24.8963 8.89635 25.6 8.00006 25.6C7.10377 25.6 6.40006 24.8963 6.40006 24C6.40006 23.1038 7.10377 22.4 8.00006 22.4ZM25.0667 22.4C25.963 22.4 26.6667 23.1038 26.6667 24C26.6667 24.8963 25.963 25.6 25.0667 25.6C24.1704 25.6 23.4667 24.8963 23.4667 24C23.4667 23.1038 24.1704 22.4 25.0667 22.4Z" fill="black"/>
</g>
<defs>
<clipPath id="clip0">
<rect width="32" height="32" fill="white"/>
</clipPath>
</defs>
</svg>
