<svg width="32" height="32" viewBox="0 0 32 32" fill="none" xmlns="http://www.w3.org/2000/svg">
<path d="M16 3.19995C8.93115 3.19995 3.19995 8.93115 3.19995 16C3.19995 23.0687 8.93115 28.7999 16 28.7999C23.0687 28.7999 28.7999 23.0687 28.7999 16C28.7999 8.93115 23.0687 3.19995 16 3.19995ZM8.53328 23.617C9.77808 19.8837 13.5114 21.3408 14.1333 19.3184V17.9701C13.8538 17.8197 13.0528 16.7872 12.9685 15.9808C12.7477 15.9616 12.4021 15.7429 12.2997 14.8778C12.2453 14.4138 12.4629 14.1525 12.5941 14.0704C12.5941 14.0704 12.2656 13.3216 12.2656 12.5781C12.2666 10.368 13.361 8.53328 16 8.53328C17.425 8.53328 17.8666 9.54342 17.8666 9.54342C19.1402 9.54342 19.7333 10.9397 19.7333 12.577C19.7333 13.393 19.4047 14.0693 19.4047 14.0693C19.537 14.1514 19.7546 14.4128 19.7002 14.8767C19.5978 15.7418 19.2522 15.9605 19.0314 15.9797C18.9471 16.7861 18.1472 17.8186 17.8666 17.969V19.3173C18.4885 21.3408 22.2218 19.8837 23.4666 23.617C23.4666 23.617 20.6741 26.6666 16 26.6666C11.2992 26.6666 8.53328 23.617 8.53328 23.617Z" fill="black"/>
</svg>
