<svg width="32" height="32" viewBox="0 0 32 32" fill="none" xmlns="http://www.w3.org/2000/svg">
<path d="M21.3333 3.19995C17.2096 3.19995 13.8666 6.54288 13.8666 10.6666C13.8666 11.6168 14.0513 12.5223 14.3749 13.3583L7.46662 20.2666C5.12279 20.2666 3.19995 22.1895 3.19995 24.5333C3.19995 26.8771 5.12279 28.7999 7.46662 28.7999C9.81044 28.7999 11.7333 26.8771 11.7333 24.5333L18.6416 17.625C19.4776 17.9486 20.3831 18.1333 21.3333 18.1333C25.457 18.1333 28.7999 14.7903 28.7999 10.6666C28.7999 9.71622 28.6148 8.81122 28.2916 7.97495L24.5333 11.7333H20.2666V7.46662L24.025 3.70828C23.1887 3.38508 22.2837 3.19995 21.3333 3.19995ZM7.46662 22.4C8.65773 22.4 9.59995 23.3422 9.59995 24.5333C9.59995 25.7244 8.65773 26.6666 7.46662 26.6666C6.27551 26.6666 5.33328 25.7244 5.33328 24.5333C5.33328 23.3422 6.27551 22.4 7.46662 22.4Z" fill="black"/>
</svg>
