<svg width="1096" height="736" viewBox="0 0 1096 736" fill="none" xmlns="http://www.w3.org/2000/svg">
<g opacity="0.1">
<path fill-rule="evenodd" clip-rule="evenodd" d="M747.832 398.726H623.509C615.777 398.726 609.509 404.994 609.509 412.726V489.372C609.509 497.104 615.777 503.372 623.509 503.372H747.832C755.564 503.372 761.832 497.104 761.832 489.372V412.726C761.832 404.994 755.564 398.726 747.832 398.726ZM623.509 397.726C615.225 397.726 608.509 404.442 608.509 412.726V489.372C608.509 497.657 615.225 504.372 623.509 504.372H747.832C756.116 504.372 762.832 497.657 762.832 489.372V412.726C762.832 404.442 756.116 397.726 747.832 397.726H623.509Z" fill="white"/>
<path fill-rule="evenodd" clip-rule="evenodd" d="M291.137 87.572H210.727C202.995 87.572 196.727 93.84 196.727 101.572V178.218C196.727 185.95 202.995 192.218 210.727 192.218H291.137C298.869 192.218 305.137 185.95 305.137 178.218V101.572C305.137 93.84 298.869 87.572 291.137 87.572ZM210.727 86.572C202.443 86.572 195.727 93.2877 195.727 101.572V178.218C195.727 186.502 202.443 193.218 210.727 193.218H291.137C299.421 193.218 306.137 186.502 306.137 178.218V101.572C306.137 93.2878 299.421 86.572 291.137 86.572H210.727Z" fill="white"/>
<path fill-rule="evenodd" clip-rule="evenodd" d="M139.323 194.218H15C7.26801 194.218 1 200.486 1 208.218V319.994C1 327.726 7.26803 333.994 15 333.994H139.323C147.055 333.994 153.323 327.726 153.323 319.994V208.218C153.323 200.486 147.055 194.218 139.323 194.218ZM15 193.218C6.71573 193.218 0 199.933 0 208.218V319.994C0 328.278 6.71575 334.994 15 334.994H139.323C147.607 334.994 154.323 328.278 154.323 319.994V208.218C154.323 199.933 147.607 193.218 139.323 193.218H15Z" fill="white"/>
<path fill-rule="evenodd" clip-rule="evenodd" d="M190.764 398.726H66.4409C58.7089 398.726 52.4409 404.994 52.4409 412.726V628.639C52.4409 636.371 58.709 642.639 66.4409 642.639H190.764C198.496 642.639 204.764 636.371 204.764 628.639V412.726C204.764 404.994 198.496 398.726 190.764 398.726ZM66.4409 397.726C58.1566 397.726 51.4409 404.442 51.4409 412.726V628.639C51.4409 636.924 58.1567 643.639 66.4409 643.639H190.764C199.048 643.639 205.764 636.924 205.764 628.639V412.726C205.764 404.442 199.048 397.726 190.764 397.726H66.4409Z" fill="white"/>
<path fill-rule="evenodd" clip-rule="evenodd" d="M546.323 399.981H501.316C495.241 399.981 490.316 404.906 490.316 410.981V458.497C490.316 464.572 495.241 469.497 501.316 469.497H546.323C552.398 469.497 557.323 464.572 557.323 458.497V410.981C557.323 404.906 552.398 399.981 546.323 399.981ZM501.316 398.981C494.689 398.981 489.316 404.354 489.316 410.981V458.497C489.316 465.124 494.689 470.497 501.316 470.497H546.323C552.95 470.497 558.323 465.124 558.323 458.497V410.981C558.323 404.354 552.95 398.981 546.323 398.981H501.316Z" fill="white"/>
<path fill-rule="evenodd" clip-rule="evenodd" d="M957.851 334.739H912.845C906.77 334.739 901.845 339.664 901.845 345.739V393.255C901.845 399.33 906.77 404.255 912.845 404.255H957.851C963.927 404.255 968.851 399.33 968.851 393.255V345.739C968.851 339.664 963.927 334.739 957.851 334.739ZM912.845 333.739C906.218 333.739 900.845 339.112 900.845 345.739V393.255C900.845 399.882 906.218 405.255 912.845 405.255H957.851C964.479 405.255 969.851 399.882 969.851 393.255V345.739C969.851 339.112 964.479 333.739 957.851 333.739H912.845Z" fill="white"/>
<path fill-rule="evenodd" clip-rule="evenodd" d="M653.572 603.147H477.904C471.829 603.147 466.904 608.072 466.904 614.147V723.783C466.904 729.858 471.829 734.783 477.904 734.783H653.572C659.647 734.783 664.572 729.858 664.572 723.783V614.147C664.572 608.072 659.647 603.147 653.572 603.147ZM477.904 602.147C471.277 602.147 465.904 607.52 465.904 614.147V723.783C465.904 730.41 471.277 735.783 477.904 735.783H653.572C660.199 735.783 665.572 730.41 665.572 723.783V614.147C665.572 607.52 660.199 602.147 653.572 602.147H477.904Z" fill="white"/>
<path fill-rule="evenodd" clip-rule="evenodd" d="M1080.32 1H900.788C893.056 1 886.788 7.26802 886.788 15V111.72C886.788 119.452 893.056 125.72 900.788 125.72H1080.32C1088.05 125.72 1094.32 119.452 1094.32 111.72V15C1094.32 7.26801 1088.05 1 1080.32 1ZM900.788 0C892.504 0 885.788 6.71573 885.788 15V111.72C885.788 120.005 892.504 126.72 900.788 126.72H1080.32C1088.6 126.72 1095.32 120.005 1095.32 111.72V15C1095.32 6.71573 1088.6 0 1080.32 0H900.788Z" fill="white"/>
</g>
</svg>
