<svg class="hero_play_caption" width="168" height="168" viewBox="0 0 168 168" fill="none" xmlns="http://www.w3.org/2000/svg">
<path d="M101.838 3.37853C101.763 3.75717 101.606 4.02987 101.348 4.18871C101.089 4.34755 100.759 4.41832 100.349 4.411L100.343 4.45808C100.83 4.61842 101.162 4.83667 101.359 5.10219C101.546 5.3684 101.607 5.69976 101.525 6.09764C101.425 6.64602 101.146 7.03028 100.687 7.25042C100.228 7.47055 99.6162 7.50597 98.8516 7.36595L96.2641 6.87408L97.3711 0.999594L99.9395 1.48353C101.394 1.76899 102.028 2.40375 101.838 3.37853ZM100.643 5.88223C100.703 5.56062 100.629 5.31413 100.411 5.12487C100.201 4.93494 99.8084 4.78639 99.2518 4.68715L97.6466 4.38468L97.2848 6.31433L98.9184 6.62404C99.9471 6.81006 100.516 6.56324 100.643 5.88223ZM100.957 3.30299C101.011 3.01918 100.938 2.79125 100.741 2.63776C100.543 2.47499 100.227 2.35814 99.7735 2.27001L98.1021 1.95373L97.7947 3.60884L99.296 3.89091C99.8434 3.99083 100.244 3.99883 100.498 3.90563C100.752 3.81243 100.905 3.61464 100.957 3.30299Z" fill="white"/>
<path d="M104.919 2.60282L103.901 6.25043L103.598 7.19622L103.498 7.4927L107.981 3.4612L109.065 3.76447L107.455 9.5171L106.647 9.28699L107.628 5.77268L107.839 5.08557L108.059 4.40706L103.595 8.42792L102.511 8.12466L104.12 2.37203L104.919 2.60282Z" fill="white"/>
<path d="M113.391 13.8971L112.567 13.5841L113.291 11.6466L109.394 10.1777L108.669 12.1152L107.856 11.8108L108.853 9.14436L109.293 9.30809C109.977 8.85691 110.614 8.26924 111.184 7.52789C111.754 6.79581 112.223 5.94986 112.591 4.99933L115.416 6.0616L113.592 10.9249L114.388 11.2306L113.391 13.8971ZM112.779 10.6206L114.353 6.42851L113.099 5.96044C112.772 6.70275 112.339 7.40611 111.802 8.08908C111.265 8.77205 110.726 9.28731 110.165 9.64549L112.779 10.6206Z" fill="white"/>
<path d="M117.441 13.6383C116.641 13.2583 116.126 12.7175 115.898 12.0158C115.67 11.3142 115.752 10.5245 116.164 9.66406C116.575 8.79434 117.119 8.20416 117.785 7.89422C118.451 7.58427 119.151 7.59843 119.874 7.93739C120.55 8.26118 120.985 8.73317 121.161 9.36399C121.347 9.99414 121.267 10.681 120.919 11.4061L120.678 11.9276L116.965 10.1746C116.686 10.82 116.615 11.3757 116.761 11.8501C116.908 12.3245 117.26 12.6906 117.81 12.9489C118.389 13.2238 119.024 13.3733 119.705 13.3981L119.358 14.1232C119.012 14.1111 118.693 14.0692 118.409 14.006C118.125 13.9428 117.808 13.8074 117.441 13.6383ZM119.542 8.61474C119.108 8.41322 118.696 8.38734 118.308 8.54638C117.919 8.70542 117.579 9.02878 117.298 9.50652L120.114 10.8399C120.356 10.3278 120.425 9.87491 120.332 9.4899C120.239 9.10489 119.966 8.81694 119.542 8.61474Z" fill="white"/>
<path d="M126.793 15.1936C126.305 16.0409 125.711 16.5695 125.02 16.7973C124.319 17.0258 123.604 16.9195 122.855 16.4891C122.389 16.2246 122.047 15.8765 121.811 15.4552C121.575 15.034 121.485 14.5555 121.521 14.0397C121.558 13.5239 121.733 12.9886 122.047 12.4432C122.535 11.5959 123.12 11.068 123.811 10.8402C124.502 10.6124 125.227 10.718 125.975 11.1484C126.695 11.5623 127.137 12.1364 127.284 12.872C127.43 13.5983 127.272 14.3656 126.793 15.1936ZM122.864 12.9153C122.484 13.5775 122.322 14.1584 122.386 14.6575C122.45 15.1566 122.74 15.5552 123.246 15.8541C123.762 16.1522 124.25 16.2005 124.71 16.0082C125.171 15.8159 125.597 15.393 125.986 14.7302C126.367 14.0773 126.52 13.497 126.455 12.9979C126.391 12.4988 126.092 12.1009 125.576 11.8027C125.061 11.5045 124.582 11.4462 124.13 11.6379C123.669 11.8209 123.243 12.2438 122.864 12.9153Z" fill="white"/>
<path d="M135.036 21.0841C134.451 21.8639 133.795 22.3224 133.079 22.4587C132.363 22.5951 131.65 22.4046 130.97 21.8852C130.546 21.5617 130.238 21.1737 130.066 20.7292C129.893 20.2846 129.849 19.8028 129.951 19.2915C130.054 18.7802 130.296 18.2774 130.678 17.7736C131.264 16.9938 131.92 16.5354 132.636 16.399C133.352 16.2627 134.055 16.4538 134.745 16.9725C135.406 17.4746 135.768 18.1012 135.832 18.8429C135.895 19.5846 135.605 20.3335 135.036 21.0841ZM131.418 18.3353C130.96 18.9472 130.73 19.4958 130.729 19.9996C130.729 20.5034 130.965 20.934 131.438 21.2912C131.912 21.6484 132.386 21.7631 132.87 21.6344C133.354 21.5057 133.83 21.135 134.288 20.5231C134.747 19.9205 134.976 19.3626 134.968 18.8688C134.959 18.3656 134.722 17.9351 134.24 17.5785C133.767 17.2213 133.293 17.1067 132.818 17.2347C132.343 17.3627 131.876 17.7234 131.418 18.3353Z" fill="white"/>
<path d="M137.32 27.0933L136.677 26.4592L140.844 22.1802L144.425 25.6875L140.258 29.9572L139.605 29.3145L143.226 25.5979L140.949 23.3667L137.32 27.0933Z" fill="white"/>
<path d="M143.296 33.5601C143.042 33.2615 142.87 32.9475 142.761 32.6103C142.662 32.2723 142.655 31.9276 142.741 31.5669L142.7 31.5139C142.467 31.7735 142.223 32.0059 141.987 32.2097L140.12 33.8109L139.53 33.1264L146.084 27.4881L146.562 28.0502L146.022 28.6775L146.052 28.7125C146.45 28.6741 146.808 28.7319 147.116 28.868C147.424 29.0041 147.71 29.2257 147.975 29.5329C148.493 30.1294 148.68 30.7781 148.552 31.4498C148.425 32.1309 147.989 32.7878 147.244 33.4207C146.499 34.0629 145.778 34.3862 145.081 34.4092C144.403 34.4308 143.805 34.148 143.296 33.5601ZM147.323 29.9257C146.926 29.4603 146.51 29.2389 146.082 29.2515C145.645 29.2647 145.151 29.5061 144.59 29.9856L144.441 30.1178C143.802 30.6683 143.437 31.1614 143.349 31.6064C143.26 32.0513 143.415 32.5158 143.813 32.9812C144.149 33.3765 144.571 33.5415 145.079 33.495C145.588 33.4485 146.118 33.1765 146.67 32.707C147.23 32.2182 147.568 31.7364 147.682 31.2616C147.786 30.7689 147.67 30.3296 147.323 29.9257Z" fill="white"/>
<path d="M151.402 39.0968C150.615 39.6675 149.851 39.91 149.128 39.8322C148.396 39.7551 147.78 39.3616 147.282 38.661C146.971 38.2266 146.798 37.7728 146.762 37.281C146.727 36.7984 146.832 36.3243 147.078 35.8678C147.324 35.4113 147.704 35.0011 148.217 34.637C149.004 34.0663 149.76 33.8245 150.492 33.9016C151.224 33.9787 151.83 34.3729 152.328 35.0735C152.816 35.7562 152.978 36.4533 152.808 37.1748C152.637 37.8964 152.171 38.5368 151.402 39.0968ZM148.757 35.3906C148.137 35.837 147.752 36.2943 147.61 36.7805C147.469 37.2666 147.56 37.7451 147.911 38.2232C148.254 38.7019 148.682 38.9505 149.177 38.9703C149.672 38.9901 150.242 38.7711 150.862 38.3247C151.481 37.8783 151.857 37.4216 151.999 36.9447C152.141 36.4679 152.04 35.9808 151.688 35.4934C151.346 35.0147 150.927 34.7654 150.432 34.7456C149.937 34.7258 149.376 34.9441 148.757 35.3906Z" fill="white"/>
<path d="M156.126 42.5672L154.729 40.2717L150.299 42.9839L149.823 42.2163L154.913 39.1013L156.786 42.1737L156.126 42.5672Z" fill="white"/>
<path d="M153.466 48.8538C153.292 48.512 153.191 48.1555 153.175 47.8022C153.158 47.4488 153.227 47.108 153.398 46.7783L153.366 46.7246C153.073 46.9233 152.797 47.0928 152.519 47.2344L150.338 48.3548L149.925 47.5453L157.617 43.6057L157.954 44.2621L157.282 44.7497L157.303 44.7855C157.698 44.8405 158.034 44.9746 158.301 45.1883C158.568 45.3927 158.793 45.6748 158.978 46.0345C159.336 46.736 159.376 47.4048 159.087 48.0416C158.798 48.6692 158.222 49.2057 157.352 49.6519C156.481 50.098 155.701 50.2484 155.02 50.1116C154.339 49.9654 153.824 49.546 153.466 48.8538ZM158.231 46.2663C157.949 45.7271 157.6 45.4075 157.175 45.3173C156.749 45.2272 156.208 45.3506 155.553 45.6785L155.373 45.7663C154.628 46.1473 154.154 46.5457 153.961 46.961C153.768 47.3763 153.812 47.8582 154.095 48.4066C154.333 48.865 154.697 49.1276 155.205 49.2024C155.713 49.2772 156.29 49.1417 156.936 48.8053C157.6 48.4675 158.037 48.0717 158.257 47.6359C158.476 47.2 158.471 46.7433 158.231 46.2663Z" fill="white"/>
<path d="M156.727 55.8829L157.446 55.3919L157.434 55.3555C156.977 55.221 156.628 55.0412 156.388 54.8162C156.149 54.5911 155.949 54.2792 155.788 53.8618C155.562 53.3186 155.526 52.8267 155.681 52.3956C155.835 51.9645 156.176 51.6504 156.691 51.4355C157.803 50.981 158.754 51.6298 159.544 53.3913L159.956 54.3128L160.299 54.1757C160.733 53.9947 161.015 53.7689 161.144 53.4982C161.273 53.2276 161.257 52.8835 161.088 52.4761C160.896 52.0143 160.545 51.5548 160.027 51.0889L160.566 50.5644C160.824 50.7788 161.066 51.0316 161.282 51.3144C161.499 51.6064 161.67 51.911 161.806 52.237C162.078 52.8982 162.127 53.445 161.964 53.8861C161.8 54.3272 161.397 54.6738 160.755 54.9354L156.985 56.4798L156.727 55.8829ZM156.543 53.7413C156.758 54.2667 157.063 54.6176 157.476 54.7926C157.881 54.9776 158.345 54.9623 158.861 54.7474L159.358 54.5431L158.981 53.7217C158.681 53.0625 158.389 52.6268 158.084 52.4065C157.779 52.1862 157.432 52.1556 157.053 52.3139C156.755 52.4384 156.554 52.621 156.479 52.869C156.404 53.1171 156.407 53.4154 156.543 53.7413Z" fill="white"/>
<path d="M159.377 60.9322L159.909 60.9493L160.592 60.9834L164.83 61.3826L165.162 62.4871L159.469 64.2281L159.236 63.4615L163.946 62.0256L163.61 62.0129L162.721 61.9566L158.661 61.5817L158.441 60.8608L161.614 58.2778C162.018 57.9497 162.345 57.7112 162.586 57.563L157.876 58.9989L157.643 58.2229L163.336 56.4819L163.655 57.5408L160.493 60.1417C160.158 60.3994 159.786 60.6691 159.377 60.9322Z" fill="white"/>
<path d="M161.371 68.9684L161.898 69.0418L162.577 69.1508L166.745 69.9935L166.967 71.1248L161.118 72.2615L160.967 71.4702L165.806 70.5286L165.477 70.4781L164.6 70.3277L160.602 69.5284L160.454 68.7835L163.876 66.5462C164.321 66.2618 164.66 66.0597 164.921 65.938L160.082 66.8795L159.931 66.0882L165.78 64.9516L165.99 66.0371L162.57 68.293C162.205 68.5249 161.812 68.7496 161.371 68.9684Z" fill="white"/>
<path d="M161.497 76.6746C161.405 75.795 161.603 75.0715 162.093 74.5132C162.583 73.9549 163.295 73.623 164.247 73.5254C165.208 73.4272 165.984 73.5943 166.601 74.0064C167.208 74.4191 167.56 75.0278 167.637 75.8245C167.71 76.5655 167.522 77.1856 167.082 77.6656C166.633 78.1463 166.012 78.4343 165.207 78.5117L164.644 78.5716L164.232 74.4781C163.54 74.566 163.027 74.7995 162.7 75.1685C162.373 75.5376 162.242 76.0324 162.295 76.6349C162.36 77.2738 162.555 77.894 162.887 78.4948L162.083 78.5723C161.911 78.2676 161.788 77.9781 161.702 77.6951C161.607 77.4129 161.535 77.0729 161.497 76.6746ZM166.869 75.89C166.824 75.4081 166.63 75.0491 166.286 74.7944C165.95 74.5391 165.503 74.4131 164.946 74.4259L165.257 77.5378C165.821 77.478 166.246 77.3069 166.523 77.0254C166.809 76.734 166.922 76.3619 166.869 75.89Z" fill="white"/>
<path d="M166.017 86.5318C166.456 86.5464 166.782 86.6718 167.002 86.8797C167.222 87.0968 167.319 87.3976 167.301 87.7907C167.283 88.1746 167.164 88.4631 166.927 88.667C166.691 88.8709 166.353 88.9609 165.904 88.9377C165.475 88.9225 165.149 88.797 164.919 88.5806C164.698 88.3635 164.593 88.0634 164.61 87.6702C164.628 87.2771 164.756 86.9879 165.002 86.7926C165.25 86.6066 165.588 86.5166 166.017 86.5318Z" fill="white"/>
<path d="M164.491 102.214C164.113 102.139 163.84 101.973 163.682 101.723C163.524 101.473 163.453 101.133 163.46 100.722L163.413 100.716C163.253 101.204 163.035 101.537 162.77 101.724C162.504 101.912 162.173 101.964 161.776 101.89C161.229 101.79 160.844 101.501 160.625 101.051C160.405 100.591 160.37 99.9779 160.519 99.2113L161.01 96.6285L166.865 97.749L166.374 100.323C166.106 101.76 165.473 102.404 164.491 102.214ZM162 101.006C162.321 101.067 162.567 100.993 162.756 100.774C162.945 100.555 163.094 100.171 163.203 99.6215L163.513 98.0127L161.586 97.6405L161.278 99.2771C161.082 100.299 161.32 100.879 162 101.006ZM164.576 101.331C164.859 101.385 165.086 101.312 165.249 101.114C165.411 100.915 165.537 100.598 165.616 100.145L165.931 98.4704L164.278 98.1528L163.997 99.6567C163.888 100.206 163.889 100.607 163.982 100.861C164.066 101.116 164.264 101.27 164.576 101.331Z" fill="white"/>
<path d="M165.266 105.292L161.624 104.262L160.68 103.958L160.384 103.858L164.4 108.35L164.097 109.436L158.354 107.813L158.583 107.003L162.092 107.997L162.778 108.208L163.456 108.429L159.449 103.945L159.752 102.859L165.495 104.482L165.266 105.292Z" fill="white"/>
<path d="M153.983 113.758L154.295 112.933L156.221 113.669L157.696 109.764L155.77 109.028L156.073 108.213L158.727 109.222L158.564 109.663C159.005 110.349 159.601 110.987 160.332 111.558C161.063 112.13 161.907 112.6 162.857 112.978L161.788 115.809L156.941 113.971L156.637 114.767L153.983 113.758ZM157.254 113.146L161.439 114.733L161.915 113.476C161.174 113.148 160.472 112.714 159.79 112.176C159.108 111.639 158.593 111.088 158.245 110.535L157.254 113.146Z" fill="white"/>
<path d="M154.226 117.845C154.605 117.043 155.146 116.537 155.845 116.299C156.546 116.071 157.335 116.162 158.193 116.566C159.061 116.978 159.65 117.523 159.96 118.191C160.27 118.859 160.256 119.559 159.908 120.284C159.585 120.961 159.113 121.387 158.485 121.573C157.856 121.759 157.179 121.678 156.446 121.331L155.925 121.089L157.684 117.368C157.039 117.089 156.485 117.018 156.011 117.164C155.537 117.311 155.172 117.664 154.914 118.215C154.64 118.794 154.491 119.43 154.467 120.113L153.743 119.765C153.755 119.419 153.796 119.099 153.859 118.814C153.932 118.529 154.048 118.213 154.226 117.845ZM159.232 119.951C159.433 119.517 159.459 119.104 159.3 118.715C159.141 118.325 158.818 117.985 158.341 117.703L157.002 120.525C157.513 120.767 157.966 120.846 158.349 120.744C158.733 120.641 159.03 120.377 159.232 119.951Z" fill="white"/>
<path d="M152.657 127.205C151.82 126.716 151.283 126.121 151.055 125.419C150.827 124.717 150.933 124.001 151.362 123.251C151.627 122.793 151.973 122.441 152.404 122.214C152.824 121.978 153.302 121.887 153.817 121.924C154.332 121.961 154.867 122.146 155.411 122.46C156.248 122.95 156.785 123.545 157.012 124.237C157.24 124.93 157.135 125.656 156.695 126.397C156.273 127.118 155.699 127.552 154.975 127.698C154.25 127.844 153.474 127.686 152.657 127.205ZM154.939 123.269C154.278 122.888 153.698 122.726 153.2 122.79C152.702 122.854 152.304 123.145 152.006 123.652C151.709 124.168 151.651 124.657 151.843 125.119C152.035 125.581 152.458 126.007 153.119 126.397C153.771 126.778 154.35 126.932 154.849 126.868C155.347 126.803 155.744 126.504 156.041 125.987C156.339 125.471 156.397 124.991 156.215 124.538C156.033 124.085 155.601 123.659 154.939 123.269Z" fill="white"/>
<path d="M146.768 135.426C145.998 134.838 145.54 134.181 145.403 133.454C145.267 132.737 145.458 132.032 145.985 131.341C146.307 130.916 146.695 130.617 147.148 130.435C147.6 130.252 148.072 130.218 148.583 130.33C149.094 130.432 149.596 130.676 150.099 131.059C150.868 131.646 151.326 132.303 151.462 133.021C151.598 133.739 151.408 134.443 150.88 135.125C150.379 135.787 149.754 136.15 149.013 136.204C148.272 136.258 147.526 135.995 146.768 135.426ZM149.52 131.801C148.909 131.342 148.361 131.111 147.858 131.111C147.355 131.11 146.926 131.347 146.569 131.821C146.213 132.294 146.098 132.769 146.227 133.254C146.356 133.739 146.726 134.216 147.337 134.675C147.938 135.135 148.495 135.365 148.988 135.357C149.49 135.348 149.92 135.111 150.276 134.638C150.633 134.164 150.747 133.689 150.619 133.213C150.501 132.737 150.131 132.269 149.52 131.801Z" fill="white"/>
<path d="M140.743 137.723L141.376 137.079L145.63 141.265L142.12 144.843L137.866 140.657L138.507 140.004L142.209 143.642L144.445 141.361L140.743 137.723Z" fill="white"/>
<path d="M134.289 143.699C134.587 143.444 134.9 143.272 135.237 143.173C135.575 143.073 135.919 143.067 136.279 143.152L136.332 143.111C136.072 142.878 135.84 142.634 135.637 142.397L134.038 140.527L134.721 139.936L140.334 146.522L139.773 147.002L139.147 146.46L139.112 146.49C139.15 146.889 139.092 147.248 138.957 147.556C138.821 147.864 138.591 148.152 138.293 148.416C137.688 148.927 137.05 149.123 136.37 148.986C135.69 148.849 135.034 148.421 134.402 147.674C133.761 146.928 133.438 146.206 133.415 145.508C133.41 144.799 133.701 144.199 134.289 143.699ZM137.908 147.735C138.373 147.337 138.594 146.92 138.581 146.492C138.568 146.054 138.326 145.559 137.857 144.996L137.725 144.847C137.185 144.206 136.683 143.841 136.239 143.752C135.794 143.654 135.33 143.809 134.867 144.217C134.472 144.553 134.307 144.976 134.354 145.486C134.401 145.995 134.663 146.526 135.142 147.089C135.621 147.66 136.102 147.998 136.585 148.103C137.067 148.207 137.505 148.082 137.908 147.735Z" fill="white"/>
<path d="M128.771 151.781C128.201 150.992 127.958 150.226 128.044 149.492C128.121 148.759 128.514 148.142 129.222 147.643C129.656 147.331 130.118 147.157 130.6 147.122C131.081 147.087 131.555 147.192 132.001 147.439C132.457 147.686 132.867 148.076 133.23 148.581C133.791 149.37 134.042 150.136 133.955 150.86C133.878 151.584 133.485 152.201 132.786 152.7C132.105 153.188 131.408 153.342 130.679 153.18C129.951 153.019 129.321 152.561 128.771 151.781ZM132.47 149.14C132.024 148.52 131.568 148.134 131.082 147.992C130.606 147.84 130.119 147.941 129.642 148.284C129.164 148.626 128.916 149.055 128.896 149.551C128.877 150.056 129.095 150.619 129.532 151.24C129.968 151.861 130.434 152.237 130.91 152.38C131.386 152.522 131.872 152.421 132.358 152.069C132.836 151.726 133.094 151.306 133.104 150.811C133.125 150.324 132.917 149.77 132.47 149.14Z" fill="white"/>
<path d="M125.298 156.513L127.599 155.113L124.899 150.664L125.675 150.197L128.777 155.307L125.71 157.173L125.298 156.513Z" fill="white"/>
<path d="M119.022 153.837C119.372 153.662 119.719 153.562 120.072 153.545C120.424 153.529 120.764 153.597 121.094 153.769L121.147 153.737C120.949 153.444 120.779 153.158 120.637 152.879L119.527 150.684L120.335 150.27L124.261 157.988L123.606 158.325L123.128 157.651L123.092 157.672C123.038 158.068 122.904 158.404 122.691 158.672C122.477 158.939 122.196 159.165 121.846 159.349C121.146 159.708 120.478 159.748 119.843 159.458C119.207 159.169 118.681 158.592 118.235 157.719C117.789 156.847 117.639 156.065 117.785 155.383C117.93 154.7 118.33 154.186 119.022 153.837ZM121.596 158.602C122.135 158.33 122.453 157.971 122.544 157.554C122.634 157.127 122.51 156.586 122.183 155.929L122.095 155.748C121.715 155.002 121.317 154.527 120.902 154.334C120.488 154.14 120.007 154.185 119.458 154.458C119.001 154.697 118.739 155.061 118.664 155.57C118.59 156.079 118.725 156.657 119.062 157.314C119.399 157.979 119.785 158.418 120.23 158.646C120.675 158.875 121.121 158.852 121.596 158.602Z" fill="white"/>
<path d="M112.005 157.083L112.496 157.803L112.532 157.791C112.666 157.334 112.846 156.985 113.071 156.754C113.296 156.522 113.607 156.322 114.023 156.152C114.575 155.925 115.057 155.899 115.487 156.054C115.909 156.21 116.231 156.55 116.446 157.067C116.9 158.181 116.243 159.134 114.485 159.915L113.556 160.329L113.693 160.673C113.873 161.108 114.09 161.39 114.36 161.52C114.63 161.649 114.973 161.634 115.38 161.464C115.841 161.272 116.299 160.921 116.774 160.401L117.288 160.942C117.074 161.2 116.822 161.443 116.54 161.659C116.248 161.876 115.944 162.048 115.619 162.184C114.959 162.456 114.413 162.505 113.973 162.341C113.532 162.177 113.186 161.774 112.925 161.13L111.392 157.352L112.005 157.083ZM114.134 156.9C113.609 157.115 113.259 157.421 113.084 157.825C112.899 158.231 112.915 158.696 113.129 159.212L113.333 159.71L114.153 159.333C114.812 159.043 115.246 158.74 115.466 158.435C115.686 158.13 115.716 157.782 115.558 157.402C115.434 157.103 115.251 156.902 115.003 156.817C114.755 156.733 114.459 156.764 114.134 156.9Z" fill="white"/>
<path d="M106.928 159.731L106.911 160.264L106.877 160.947L106.47 165.185L105.367 165.517L103.637 159.813L104.402 159.58L105.827 164.299L105.84 163.962L105.896 163.072L106.278 159.004L106.998 158.783L109.569 161.973C109.897 162.387 110.134 162.706 110.282 162.947L108.857 158.228L109.632 157.994L111.362 163.698L110.305 164.018L107.717 160.849C107.45 160.514 107.19 160.141 106.928 159.731Z" fill="white"/>
<path d="M98.9239 161.706L98.8507 162.234L98.7421 162.914L97.8927 167.09L96.7629 167.303L95.6453 161.442L96.4351 161.291L97.3577 166.14L97.408 165.81L97.558 164.931L98.364 160.926L99.1082 160.788L101.334 164.226C101.618 164.672 101.82 165.021 101.941 165.273L101.019 160.424L101.808 160.273L102.926 166.134L101.842 166.344L99.599 162.916C99.3667 162.541 99.1424 162.147 98.9239 161.706Z" fill="white"/>
<path d="M84.8012 166.349C84.7961 166.788 84.6994 167.122 84.4927 167.351C84.286 167.581 83.9871 167.696 83.5954 167.687C83.2136 167.687 82.9162 167.569 82.714 167.351C82.5019 167.124 82.4027 166.786 82.3979 166.338C82.4037 165.909 82.5004 165.575 82.7157 165.335C82.9224 165.106 83.2213 164.991 83.6031 164.991C83.9941 164.99 84.2915 165.108 84.4957 165.355C84.6993 165.592 84.7978 165.92 84.8012 166.349Z" fill="white"/>
<path d="M69.1192 165.453C69.1748 165.066 69.3318 164.793 69.5803 164.626C69.8288 164.458 70.1575 164.369 70.5671 164.367L70.573 164.32C70.0784 164.179 69.7372 163.971 69.5416 163.714C69.3459 163.458 69.2752 163.128 69.3294 162.722C69.4104 162.175 69.6797 161.782 70.1279 161.544C70.5761 161.306 71.1861 161.243 71.9586 161.364L74.5571 161.752L73.6765 167.666L71.0872 167.277C69.6363 167.047 68.9774 166.443 69.1192 165.453ZM70.0073 165.5C69.9629 165.783 70.0447 166.01 70.2514 166.163C70.4581 166.316 70.7826 166.423 71.2254 166.493L72.9105 166.743L73.161 165.073L71.6452 164.848C71.0899 164.767 70.6902 164.778 70.4463 164.88C70.2023 164.982 70.0498 165.189 70.0073 165.5ZM70.2184 162.909C70.1674 163.23 70.2598 163.475 70.4785 163.665C70.6965 163.845 71.0878 163.975 71.6531 164.064L73.2727 164.309L73.5591 162.366L71.9209 162.122C70.8843 161.956 70.3263 162.22 70.2184 162.909Z" fill="white"/>
<path d="M66.0743 166.347L66.9504 162.663L67.216 161.711L67.3061 161.415L62.9848 165.612L61.8852 165.347L63.2762 159.536L64.1004 159.727L63.2519 163.279L63.0698 163.973L62.8778 164.659L67.1906 160.472L68.2902 160.737L66.8992 166.548L66.0743 166.347Z" fill="white"/>
<path d="M57.181 155.391L58.0113 155.666L57.363 157.626L61.3145 158.942L61.9628 156.982L62.793 157.257L61.8914 159.954L61.4524 159.809C60.7796 160.287 60.1726 160.901 59.632 161.659C59.0915 162.417 58.6517 163.279 58.3219 164.245L55.4582 163.289L57.0996 158.355L56.2886 158.087L57.181 155.391ZM57.9213 158.64L56.5096 162.895L57.7789 163.315C58.078 162.565 58.481 161.836 58.9886 161.137C59.4962 160.437 60.0246 159.895 60.5559 159.52L57.9213 158.64Z" fill="white"/>
<path d="M53.1321 155.799C53.94 156.151 54.4809 156.671 54.7363 157.361C54.9923 158.061 54.9375 158.839 54.5645 159.725C54.1916 160.611 53.668 161.218 53.0128 161.555C52.3577 161.892 51.6602 161.906 50.9291 161.586C50.2464 161.291 49.7936 160.829 49.59 160.21C49.3857 159.581 49.4387 158.906 49.7477 158.165L49.9698 157.635L53.7478 159.253C54.0073 158.599 54.0507 158.046 53.8857 157.573C53.7214 157.109 53.3601 156.753 52.7933 156.515C52.2065 156.259 51.5645 156.138 50.8849 156.141L51.2032 155.399C51.5479 155.402 51.8662 155.425 52.1496 155.479C52.4329 155.533 52.7573 155.64 53.1321 155.799ZM51.223 160.893C51.6654 161.084 52.0756 161.092 52.4631 160.914C52.8505 160.737 53.1709 160.405 53.4334 159.92L50.5686 158.692C50.3458 159.212 50.2957 159.673 50.4069 160.048C50.5188 160.431 50.7906 160.71 51.223 160.893Z" fill="white"/>
<path d="M43.7127 154.594C44.171 153.73 44.7358 153.176 45.4248 152.92C46.1139 152.665 46.8366 152.742 47.6016 153.144C48.0759 153.389 48.4358 153.726 48.68 154.138C48.9243 154.549 49.0429 155.025 49.0247 155.54C49.0071 156.064 48.8506 156.598 48.5558 157.151C48.0974 158.015 47.5327 158.569 46.8529 158.824C46.1731 159.079 45.4504 159.001 44.6854 158.6C43.9488 158.206 43.4893 157.652 43.3153 156.928C43.1419 156.213 43.2709 155.429 43.7127 154.594ZM47.7332 156.726C48.0932 156.046 48.2278 155.468 48.1449 154.97C48.0619 154.472 47.7635 154.083 47.2409 153.814C46.7183 153.544 46.2312 153.505 45.771 153.707C45.3115 153.918 44.906 154.358 44.5459 155.037C44.1945 155.706 44.0598 156.285 44.1428 156.783C44.2251 157.272 44.5328 157.66 45.0653 157.938C45.5886 158.217 46.0757 158.256 46.5167 158.046C46.9576 157.837 47.3731 157.405 47.7332 156.726Z" fill="white"/>
<path d="M35.2782 149.025C35.8346 148.229 36.4696 147.744 37.184 147.58C37.8983 147.416 38.6087 147.578 39.3156 148.077C39.7476 148.381 40.0639 148.759 40.2639 149.202C40.4639 149.645 40.5177 150.126 40.4339 150.636C40.3501 151.146 40.1274 151.666 39.7644 152.177C39.208 152.974 38.573 153.459 37.8679 153.622C37.1628 153.786 36.4525 153.623 35.7455 153.124C35.0584 152.643 34.6788 152.036 34.5968 151.296C34.5055 150.556 34.7297 149.803 35.2782 149.025ZM38.9985 151.636C39.4367 151.007 39.6474 150.451 39.6201 149.949C39.602 149.446 39.3478 149.026 38.8668 148.688C38.3857 148.35 37.9038 148.255 37.4211 148.402C36.9383 148.55 36.4824 148.937 36.0441 149.567C35.6052 150.186 35.4044 150.751 35.4311 151.244C35.4578 151.736 35.7127 152.166 36.2036 152.512C36.6847 152.85 37.1666 152.946 37.6308 152.8C38.1043 152.653 38.5602 152.265 38.9985 151.636Z" fill="white"/>
<path d="M32.7591 143.099L33.4272 143.703L29.4206 148.129L25.7102 144.762L29.7169 140.336L30.3949 140.949L26.914 144.795L29.2775 146.936L32.7591 143.099Z" fill="white"/>
<path d="M26.5489 136.873C26.8121 137.162 27.0019 137.465 27.1104 137.802C27.2281 138.139 27.244 138.483 27.1771 138.842L27.2176 138.886C27.4401 138.618 27.6739 138.377 27.9005 138.164L29.6967 136.494L30.3133 137.158L23.9734 143.042L23.4775 142.499L23.9891 141.856L23.9586 141.82C23.5617 141.868 23.2056 141.838 22.8884 141.703C22.5719 141.577 22.2771 141.365 22.0039 141.068C21.4675 140.482 21.254 139.854 21.3526 139.166C21.4513 138.477 21.8676 137.803 22.5831 137.144C23.2979 136.476 24.0072 136.117 24.7026 136.075C25.4079 136.042 26.0232 136.305 26.5489 136.873ZM22.6721 140.655C23.0865 141.101 23.5117 141.312 23.9378 141.281C24.3639 141.25 24.8571 140.99 25.4074 140.492L25.5553 140.351C26.175 139.783 26.5195 139.273 26.5888 138.82C26.6674 138.366 26.4946 137.913 26.0709 137.468C25.7175 137.092 25.2964 136.937 24.789 137.002C24.2823 137.076 23.7627 137.357 23.2216 137.853C22.672 138.36 22.3546 138.859 22.2595 139.342C22.1744 139.833 22.3088 140.271 22.6721 140.655Z" fill="white"/>
<path d="M18.2522 131.658C19.0187 131.061 19.7719 130.791 20.5019 130.841C21.2318 130.89 21.8645 131.263 22.3891 131.943C22.7181 132.367 22.9095 132.82 22.9633 133.301C23.0171 133.782 22.9306 134.255 22.7038 134.719C22.477 135.184 22.1079 135.612 21.6143 135.993C20.8478 136.59 20.1038 136.859 19.3739 136.81C18.6439 136.761 18.0212 136.396 17.4866 135.707C16.9726 135.045 16.7821 134.35 16.9244 133.621C17.0574 132.893 17.5029 132.235 18.2522 131.658ZM21.0386 135.251C21.6379 134.788 22.003 134.304 22.1351 133.819C22.2672 133.333 22.1486 132.857 21.7791 132.389C21.419 131.921 20.9832 131.692 20.4803 131.691C19.9774 131.691 19.4266 131.927 18.8187 132.4C18.2193 132.864 17.8628 133.338 17.74 133.823C17.6171 134.307 17.7358 134.784 18.1059 135.261C18.466 135.729 18.8926 135.959 19.3862 135.96C19.8799 135.961 20.4306 135.725 21.0386 135.251Z" fill="white"/>
<path d="M13.382 128.348L14.8683 130.59L19.1934 127.718L19.6957 128.474L14.7315 131.776L12.7429 128.777L13.382 128.348Z" fill="white"/>
<path d="M15.8121 121.975C16.0046 122.316 16.1138 122.662 16.1488 123.014C16.1839 123.366 16.1249 123.706 15.9634 124.045L15.9953 124.098C16.2781 123.891 16.5537 123.712 16.8307 123.552L18.9685 122.351L19.408 123.14L11.8767 127.376L11.5129 126.731L12.1645 126.216L12.1432 126.181C11.7488 126.135 11.4051 126.02 11.1295 125.816C10.8545 125.622 10.6198 125.34 10.4173 124.991C10.0316 124.301 9.96424 123.634 10.2245 122.99C10.4847 122.346 11.0402 121.793 11.8896 121.311C12.7483 120.828 13.5176 120.65 14.2059 120.768C14.8957 120.904 15.4271 121.295 15.8121 121.975ZM11.1534 124.742C11.4527 125.27 11.8106 125.58 12.2442 125.651C12.6685 125.722 13.2075 125.58 13.852 125.225L14.0312 125.128C14.765 124.72 15.2188 124.304 15.3927 123.881C15.5667 123.458 15.5129 122.977 15.2035 122.44C14.9473 121.992 14.575 121.739 14.0687 121.692C13.5624 121.645 12.9869 121.799 12.3517 122.154C11.6986 122.519 11.2811 122.922 11.0721 123.376C10.8632 123.83 10.8964 124.285 11.1534 124.742Z" fill="white"/>
<path d="M12.2812 115.078L11.5834 115.595L11.6046 115.631C12.0693 115.746 12.417 115.917 12.6656 116.132C12.9048 116.348 13.1231 116.658 13.3012 117.056C13.5457 117.598 13.5995 118.079 13.4633 118.509C13.3271 118.938 12.9975 119.27 12.4837 119.504C11.3842 120.004 10.417 119.384 9.56423 117.655L9.11593 116.746L8.7827 116.901C8.35888 117.091 8.08802 117.334 7.96808 117.604C7.84881 117.884 7.8825 118.217 8.06123 118.624C8.27115 119.075 8.63921 119.524 9.17468 119.97L8.66482 120.511C8.39844 120.306 8.14787 120.063 7.92238 119.781C7.69689 119.499 7.50709 119.196 7.36293 118.88C7.06398 118.23 6.99616 117.685 7.14095 117.245C7.28573 116.805 7.67745 116.431 8.30821 116.143L12.0121 114.454L12.2812 115.078ZM12.5484 117.204C12.3152 116.689 11.9923 116.349 11.5798 116.183C11.1673 116.018 10.7041 116.051 10.1996 116.284L9.71302 116.506L10.1261 117.316C10.4435 117.964 10.7633 118.389 11.0759 118.59C11.3893 118.8 11.7348 118.812 12.1136 118.645C12.4111 118.511 12.5928 118.32 12.6671 118.063C12.7328 117.816 12.7025 117.529 12.5484 117.204Z" fill="white"/>
<path d="M9.4422 110.108L8.91219 110.118L8.23193 110.112L3.9866 109.872L3.60945 108.789L9.23049 106.83L9.49059 107.585L4.84099 109.203L5.17649 109.207L6.06324 109.235L10.1391 109.45L10.3872 110.169L7.3158 112.866C6.92204 113.212 6.60487 113.459 6.37421 113.616L11.0238 111.998L11.2846 112.762L5.66286 114.713L5.29769 113.667L8.35784 110.943C8.67298 110.668 9.0437 110.389 9.4422 110.108Z" fill="white"/>
<path d="M7.13794 102.169L6.60386 102.124L5.92744 102.043L1.72432 101.361L1.46555 100.242L7.26105 98.8852L7.4484 99.6645L2.65033 100.78L2.9786 100.812L3.86287 100.934L7.88661 101.582L8.0613 102.316L4.72324 104.678C4.29831 104.979 3.95063 105.191 3.70867 105.321L8.50674 104.205L8.6855 104.994L2.89001 106.351L2.64322 105.268L5.97066 102.889C6.32488 102.639 6.71752 102.405 7.13794 102.169Z" fill="white"/>
<path d="M6.72293 94.4558C6.84296 95.3333 6.67222 96.0548 6.21206 96.6389C5.75189 97.223 5.04185 97.5735 4.10111 97.6982C3.15179 97.8329 2.35947 97.6949 1.73477 97.3021C1.11006 96.9093 0.741083 96.3206 0.63642 95.5259C0.535829 94.7869 0.694831 94.1595 1.12405 93.6617C1.55326 93.1638 2.16414 92.8579 2.96661 92.7526L3.52892 92.6742L4.08816 96.7569C4.77812 96.6411 5.28191 96.3991 5.59818 96.0121C5.91444 95.6251 6.02736 95.1317 5.94621 94.5313C5.86235 93.8937 5.64089 93.2848 5.29044 92.6947L6.09224 92.5801C6.27209 92.8748 6.41422 93.1629 6.50868 93.4359C6.59455 93.7188 6.67523 94.0581 6.72293 94.4558ZM1.38467 95.4432C1.44706 95.9144 1.65946 96.2721 2.00333 96.5175C2.34652 96.7536 2.80199 96.8696 3.35844 96.8382L2.93663 93.7437C2.36505 93.8228 1.94982 94.0025 1.68303 94.3019C1.42482 94.5913 1.32228 94.972 1.38467 95.4432Z" fill="white"/>
<path d="M1.85269 84.7734C1.41463 84.7681 1.08093 84.6619 0.85228 84.4641C0.623631 84.2662 0.507935 83.9575 0.51649 83.565C0.516461 83.1825 0.63437 82.8847 0.861633 82.6815C1.08822 82.469 1.42551 82.3697 1.87284 82.3743C2.30164 82.3803 2.63534 82.4865 2.87393 82.693C3.10326 82.9001 3.21827 83.1995 3.2183 83.582C3.21901 83.9738 3.09184 84.2723 2.85531 84.4762C2.60952 84.6808 2.27223 84.7801 1.85269 84.7734Z" fill="white"/>
<path d="M2.77321 69.0794C3.15909 69.1352 3.43134 69.2925 3.59854 69.5415C3.76574 69.7905 3.85501 70.1198 3.85707 70.5302L3.90406 70.5361C4.04478 70.0407 4.2526 69.6989 4.50833 69.503C4.77332 69.3063 5.09413 69.2362 5.49921 69.2999C6.04527 69.3813 6.4375 69.6511 6.6752 70.1002C6.91291 70.5493 6.97621 71.1604 6.85585 71.9342L6.45955 74.5381L0.564707 73.6443L0.95242 71.0504C1.18072 69.5877 1.78433 68.9278 2.77321 69.0794ZM2.72583 69.9598C2.4432 69.9152 2.21638 69.9971 2.06322 70.1949C1.91074 70.4019 1.79486 70.7276 1.73412 71.1705L1.48574 72.868L3.15239 73.1193L3.37661 71.6009C3.457 71.0446 3.44635 70.6442 3.34467 70.3997C3.24298 70.1553 3.03693 70.0117 2.72583 69.9598ZM5.31221 70.1812C4.99185 70.13 4.74718 70.2225 4.55833 70.4416C4.37874 70.66 4.23982 71.0526 4.15944 71.6089L3.91489 73.2315L5.85491 73.5281L6.10737 71.8863C6.25504 70.8493 5.99067 70.2902 5.31221 70.1812Z" fill="white"/>
<path d="M1.88784 66.0281L5.56593 66.9161L6.51664 67.1824L6.81192 67.2728L2.62999 62.9325L2.89401 61.831L8.69582 63.2354L8.49548 64.0617L4.94979 63.2014L4.25664 63.0188L3.57208 62.8263L7.74407 67.158L7.47937 68.2502L1.67757 66.8458L1.88784 66.0281Z" fill="white"/>
<path d="M12.8486 57.1102L12.5742 57.9419L10.617 57.2827L9.29538 61.2417L11.2526 61.9009L10.9775 62.7234L8.28533 61.8193L8.43011 61.3796C7.96172 60.7048 7.3492 60.0965 6.59254 59.5548C5.83588 59.013 4.97486 58.5722 4.01873 58.2316L4.9823 55.3623L9.89918 57.018L10.175 56.2048L12.8486 57.1102ZM9.60622 57.851L5.36735 56.4257L4.93819 57.6886C5.68647 57.9884 6.4151 58.4016 7.11347 58.9103C7.81184 59.419 8.35341 59.9485 8.719 60.4908L9.60622 57.851Z" fill="white"/>
<path d="M12.433 53.0823C12.0824 53.8916 11.5633 54.4333 10.8742 54.6889C10.1759 54.9452 9.39899 54.8901 8.51424 54.507C7.6295 54.1238 7.02376 53.6084 6.68709 52.9519C6.35041 52.2955 6.34584 51.5961 6.65553 50.8645C6.95008 50.1805 7.41047 49.7271 8.02881 49.5232C8.64715 49.3194 9.33079 49.3721 10.0712 49.6911L10.5996 49.9137L8.98591 53.6981C9.63817 53.9583 10.1908 54.0019 10.6629 53.8368C11.1258 53.6723 11.4812 53.3105 11.7191 52.7426C11.9741 52.1549 12.0947 51.5117 12.1007 50.8302L12.8411 51.1492C12.8384 51.4946 12.8152 51.8135 12.7521 52.098C12.6984 52.3818 12.5918 52.7068 12.433 53.0823ZM7.34755 51.1591C7.15645 51.6022 7.14925 52.0132 7.32663 52.4014C7.50401 52.7896 7.83479 53.1106 8.31964 53.3737L9.54392 50.504C9.02473 50.2807 8.57334 50.2205 8.19108 50.3417C7.81742 50.453 7.53933 50.7252 7.34755 51.1591Z" fill="white"/>
<path d="M13.6526 43.6544C14.515 44.1138 15.0692 44.689 15.3153 45.3801C15.5707 46.0704 15.4932 46.7945 15.0837 47.5614C14.8298 48.0371 14.5022 48.3969 14.0825 48.6422C13.6627 48.8875 13.1964 49.0055 12.6829 48.9871C12.1601 48.9693 11.6272 48.8124 11.0748 48.5169C10.2124 48.0575 9.65883 47.4916 9.41275 46.8005C9.15808 46.1195 9.23552 45.3954 9.64506 44.6285C10.0381 43.8907 10.5911 43.4304 11.3141 43.2563C12.0363 43.0729 12.8194 43.2115 13.6526 43.6544ZM11.5159 47.673C12.1849 48.0346 12.7721 48.1689 13.2689 48.0859C13.7657 48.003 14.1536 47.7041 14.4319 47.1799C14.7102 46.6558 14.749 46.1678 14.5384 45.7074C14.3278 45.247 13.8884 44.8407 13.2101 44.4798C12.5411 44.1182 11.9632 43.9832 11.4671 44.0754C10.9796 44.1577 10.5923 44.4659 10.3055 45C10.0272 45.5241 9.98834 46.0121 10.1883 46.4546C10.3883 46.8971 10.8377 47.3121 11.5159 47.673Z" fill="white"/>
<path d="M19.2274 35.2048C20.0225 35.7625 20.5067 36.3988 20.6714 37.1238C20.8355 37.8394 20.6734 38.551 20.1757 39.2591C19.8721 39.6918 19.4948 40.0086 19.0532 40.2088C18.6108 40.3998 18.1312 40.4628 17.6215 40.3695C17.1125 40.2854 16.5933 40.0621 16.0825 39.6983C15.2874 39.1407 14.8032 38.5044 14.6391 37.7887C14.475 37.073 14.6379 36.3707 15.1355 35.6626C15.6167 34.9837 16.2215 34.5943 16.9605 34.5123C17.6994 34.4303 18.4522 34.6644 19.2274 35.2048ZM16.6131 38.9318C17.2319 39.3717 17.7968 39.5823 18.2983 39.5643C18.7999 39.5463 19.2189 39.2917 19.5654 38.8093C19.9027 38.3275 19.9978 37.8447 19.8507 37.361C19.7036 36.8773 19.3163 36.4205 18.6882 35.9813C18.0694 35.5414 17.5052 35.3401 17.0136 35.3667C16.5127 35.394 16.0937 35.6485 15.7478 36.1403C15.4106 36.6221 15.3062 37.1055 15.452 37.5707C15.5977 38.0358 15.985 38.4926 16.6131 38.9318Z" fill="white"/>
<path d="M25.161 32.6812L24.5488 33.3511L20.1384 29.326L23.5085 25.6184L27.9188 29.6435L27.3073 30.3226L23.4763 26.8336L21.3299 29.1923L25.161 32.6812Z" fill="white"/>
<path d="M31.3848 26.4793C31.0967 26.743 30.794 26.933 30.4574 27.0416C30.1208 27.1502 29.7781 27.1752 29.4186 27.0989L29.375 27.1394C29.6428 27.3624 29.8834 27.5967 30.0955 27.8237L31.7643 29.6329L31.1018 30.2504L25.2447 23.8869L25.7857 23.3902L26.4285 23.9029L26.4635 23.8724C26.4158 23.4747 26.4549 23.1173 26.5807 22.8003C26.7065 22.4832 26.9177 22.1879 27.215 21.9236C27.7997 21.3864 28.4266 21.1726 29.1143 21.2809C29.802 21.3893 30.4651 21.7979 31.1321 22.5142C31.7998 23.2397 32.1491 23.9418 32.2 24.6378C32.2231 25.3358 31.9608 25.9521 31.3848 26.4793ZM27.6165 22.5753C27.172 22.9903 26.961 23.4162 26.9922 23.8431C27.0241 24.2792 27.283 24.7641 27.7796 25.3155L27.9116 25.4645C28.4785 26.0854 28.988 26.4307 29.44 26.5002C29.8928 26.5791 30.3458 26.406 30.7996 25.9903C31.1742 25.6364 31.3296 25.2146 31.2644 24.7062C31.1993 24.1979 30.9099 23.6779 30.414 23.1358C29.9081 22.585 29.4192 22.2662 28.928 22.1715C28.4468 22.0854 28.0096 22.22 27.6165 22.5753Z" fill="white"/>
<path d="M36.616 18.1669C37.2123 18.935 37.4816 19.6896 37.4327 20.4209C37.3744 21.1528 37.011 21.7858 36.3323 22.3112C35.9094 22.6407 35.4578 22.8323 34.9775 22.8861C34.4972 22.9399 34.0252 22.8531 33.561 22.6165C33.0967 22.3799 32.6699 22.0192 32.2892 21.5246C31.6929 20.7566 31.4235 20.0019 31.4732 19.2799C31.5228 18.5579 31.8955 17.9243 32.5742 17.3989C33.235 16.8841 33.9294 16.7027 34.6562 16.8361C35.383 16.9696 36.0303 17.4167 36.616 18.1669ZM33.02 20.9487C33.4829 21.5493 33.966 21.9151 34.4506 22.0476C34.9352 22.1801 35.4108 22.0614 35.8779 21.7007C36.3451 21.34 36.5832 20.9028 36.5744 20.3997C36.5748 19.8958 36.3389 19.344 35.8752 18.7342C35.4123 18.1336 34.9385 17.7671 34.4546 17.6439C33.9706 17.5207 33.4951 17.6394 33.0193 18.01C32.5521 18.3707 32.3133 18.7987 32.3122 19.2932C32.3118 19.797 32.5471 20.3396 33.02 20.9487Z" fill="white"/>
<path d="M39.9023 13.3179L37.6644 14.8063L40.5242 19.1499L39.7695 19.6529L36.481 14.6689L39.4743 12.6868L39.9023 13.3179Z" fill="white"/>
<path d="M46.2825 15.7528C45.9427 15.9456 45.5968 16.0549 45.2448 16.0806C44.8935 16.1156 44.5533 16.0472 44.2162 15.8946L44.1633 15.9358C44.3703 16.2192 44.5488 16.4953 44.6995 16.7735L45.8998 18.9248L45.1124 19.3649L40.9002 11.8082L41.5447 11.4532L42.0488 12.1067L42.0845 12.0854C42.1301 11.6903 42.2446 11.346 42.448 11.07C42.6513 10.7939 42.9228 10.5594 43.2712 10.3567C43.96 9.9705 44.6262 9.91246 45.2692 10.1733C45.9122 10.4342 46.4651 10.9908 46.9378 11.8519C47.4197 12.7123 47.5972 13.483 47.4799 14.1726C47.3614 14.8436 46.9627 15.3766 46.2825 15.7528ZM43.5285 11.0749C43.001 11.3747 42.692 11.7332 42.6213 12.1675C42.5506 12.6018 42.6919 13.1326 43.0371 13.7791L43.1341 13.9586C43.5417 14.6938 43.9568 15.1485 44.3792 15.3229C44.8024 15.5065 45.282 15.4435 45.8188 15.143C46.2663 14.8957 46.5178 14.5135 46.5738 14.0056C46.6298 13.4977 46.4759 12.9212 46.1127 12.2854C45.7483 11.631 45.3445 11.2034 44.8922 11.0032C44.4485 10.7931 43.9939 10.817 43.5285 11.0749Z" fill="white"/>
<path d="M53.15 12.2467L52.6333 11.5474L52.5976 11.5687C52.4826 12.0343 52.3125 12.3826 52.0979 12.6315C51.8826 12.8711 51.5727 13.0897 51.1667 13.2687C50.6259 13.5134 50.1456 13.5672 49.7158 13.4214C49.2868 13.2848 48.9553 12.9545 48.7222 12.4398C48.2226 11.3381 48.8408 10.3693 50.5756 9.5148L51.4834 9.06593L51.3286 8.73206C51.1392 8.30743 50.9051 8.03533 50.6257 7.90649C50.3469 7.78693 50.0141 7.82059 49.6081 7.99955C49.1572 8.20044 48.7099 8.57833 48.2556 9.11533L47.7147 8.59512C47.9187 8.32831 48.1611 8.07735 48.4426 7.85153C48.7241 7.6257 49.0268 7.43564 49.3422 7.2913C49.9914 7.00126 50.5352 6.92419 50.9742 7.06935C51.4132 7.21451 51.7864 7.60705 52.0655 8.2397L53.743 11.9514L53.15 12.2467ZM51.0277 12.5138C51.5414 12.2803 51.881 11.957 52.0463 11.5437C52.2117 11.1305 52.1777 10.6665 51.9545 10.1603L51.7326 9.67278L50.924 10.0771C50.2768 10.395 49.8532 10.7151 49.6434 11.029C49.4335 11.3429 49.4216 11.689 49.589 12.0686C49.7225 12.3667 49.9128 12.5487 50.1697 12.6232C50.4173 12.6984 50.7031 12.6588 51.0277 12.5138Z" fill="white"/>
<path d="M58.1194 9.40174L58.1178 8.87008L58.1331 8.18792L58.3809 3.93426L59.4614 3.55672L61.4012 9.19912L60.638 9.46016L59.0302 4.79173L59.0269 5.12784L58.9987 6.01619L58.7758 10.1001L58.0583 10.3485L55.3648 7.26146C55.0286 6.86622 54.7726 6.54907 54.616 6.31796L56.2238 10.9864L55.4607 11.2474L53.5209 5.60503L54.5658 5.24875L57.2764 8.31586C57.5609 8.64025 57.8388 9.00243 58.1194 9.40174Z" fill="white"/>
<path d="M66.0455 7.12365L66.0994 6.58793L66.1803 5.91031L66.8695 1.70834L67.9866 1.4494L69.3239 7.25714L68.5454 7.43534L67.4396 2.62758L67.4077 2.95644L67.2862 3.84228L66.6404 7.87315L65.8983 8.03937L63.5498 4.70322C63.2479 4.26815 63.0369 3.92906 62.9074 3.68664L64.0132 8.49439L63.2254 8.67327L61.8882 2.86553L62.969 2.61858L65.3459 5.96198C65.5755 6.29971 65.8184 6.69244 66.0455 7.12365Z" fill="white"/>
<path d="M73.7457 6.72923C72.8698 6.84925 72.1495 6.678 71.5657 6.20757C70.9819 5.73714 70.6325 5.03499 70.5078 4.09251C70.3823 3.14076 70.5106 2.34771 70.9025 1.72198C71.2944 1.09624 71.8913 0.726073 72.6752 0.62211C73.4129 0.521533 74.0398 0.690271 74.5362 1.11112C75.0326 1.53197 75.3387 2.15331 75.4441 2.95727L75.5225 3.52062L71.4467 4.07051C71.5624 4.76176 71.8042 5.26652 72.1905 5.58346C72.5676 5.90108 73.0601 6.01434 73.6688 5.93253C74.3052 5.84868 74.9129 5.62699 75.5019 5.27606L75.6072 6.08001C75.3131 6.26012 75.0255 6.40243 74.753 6.49698C74.4806 6.59154 74.1512 6.6716 73.7457 6.72923ZM72.7765 1.37039C72.3061 1.43276 71.9485 1.63617 71.7043 1.98988C71.4594 2.33431 71.3531 2.7899 71.3752 3.34804L74.464 2.9263C74.3856 2.36294 74.2062 1.9469 73.9073 1.67955C73.6269 1.41084 73.2469 1.30801 72.7765 1.37039Z" fill="white"/>
<path d="M83.4192 1.86009C83.4243 1.42123 83.5303 1.08696 83.737 0.857272C83.9437 0.627584 84.2432 0.521717 84.6343 0.521113C85.0161 0.521186 85.3134 0.639389 85.5163 0.867119C85.7285 1.09417 85.8277 1.43211 85.8232 1.88024C85.8174 2.30982 85.7114 2.6441 85.5047 2.87379C85.298 3.10347 84.9991 3.21862 84.6081 3.21922C84.217 3.21983 83.919 3.09235 83.7154 2.85534C83.5118 2.61833 83.4133 2.28967 83.4192 1.86009Z" fill="white"/>
</svg>
