<svg style="display:none">
  <symbol viewBox="0 0 32 32" class="icon_symbol" xmlns="http://www.w3.org/2000/svg" id="sign-out">
    <path d="M16 3.19995C8.94345 3.19995 3.19995 8.94345 3.19995 16C3.19995 23.0564 8.94345 28.7999 16 28.7999C18.7252 28.7999 21.2444 27.9268 23.3104 26.4729C23.5419 26.3101 23.6993 26.0621 23.7479 25.7834C23.7966 25.5046 23.7325 25.2179 23.5697 24.9864C23.407 24.7549 23.159 24.5975 22.8802 24.5489C22.6015 24.5002 22.3148 24.5643 22.0833 24.727C20.354 25.944 18.271 26.6666 16 26.6666C10.0964 26.6666 5.33328 21.9035 5.33328 16C5.33328 10.0964 10.0964 5.33328 16 5.33328C18.271 5.33328 20.354 6.05587 22.0833 7.27287C22.1979 7.35344 22.3273 7.41064 22.464 7.44121C22.6008 7.47178 22.7422 7.47512 22.8802 7.45104C23.0183 7.42695 23.1502 7.37591 23.2685 7.30084C23.3868 7.22577 23.4892 7.12813 23.5697 7.01349C23.6503 6.89886 23.7075 6.76948 23.7381 6.63274C23.7687 6.496 23.772 6.35458 23.7479 6.21655C23.7238 6.07852 23.6728 5.94658 23.5977 5.82827C23.5226 5.70997 23.425 5.60761 23.3104 5.52703C21.2444 4.0731 18.7252 3.19995 16 3.19995ZM24.5229 10.6562C24.3107 10.6563 24.1033 10.7196 23.9273 10.8381C23.7513 10.9566 23.6146 11.125 23.5348 11.3216C23.4549 11.5182 23.4355 11.7341 23.4791 11.9418C23.5226 12.1495 23.6271 12.3395 23.7791 12.4875L26.2249 14.9333H14.9333C14.7919 14.9313 14.6516 14.9574 14.5204 15.0101C14.3893 15.0628 14.2699 15.1411 14.1692 15.2403C14.0686 15.3396 13.9886 15.4578 13.9341 15.5882C13.8795 15.7186 13.8514 15.8586 13.8514 16C13.8514 16.1413 13.8795 16.2813 13.9341 16.4117C13.9886 16.5421 14.0686 16.6603 14.1692 16.7596C14.2699 16.8588 14.3893 16.9371 14.5204 16.9898C14.6516 17.0425 14.7919 17.0686 14.9333 17.0666H26.2249L23.7791 19.5125C23.6767 19.6107 23.595 19.7285 23.5387 19.8587C23.4824 19.989 23.4527 20.1292 23.4512 20.2711C23.4498 20.413 23.4767 20.5538 23.5303 20.6852C23.5839 20.8166 23.6633 20.9359 23.7636 21.0363C23.864 21.1366 23.9833 21.216 24.1147 21.2696C24.2461 21.3232 24.3869 21.3501 24.5288 21.3487C24.6707 21.3472 24.8109 21.3175 24.9412 21.2612C25.0714 21.2049 25.1892 21.1232 25.2874 21.0208L29.4604 16.8479C29.591 16.7482 29.6969 16.6196 29.7697 16.4723C29.8426 16.3249 29.8803 16.1628 29.8801 15.9984C29.8799 15.834 29.8418 15.6719 29.7686 15.5248C29.6954 15.3776 29.5892 15.2493 29.4583 15.15L25.2874 10.9791C25.188 10.8769 25.0692 10.7957 24.9379 10.7403C24.8065 10.6848 24.6654 10.6562 24.5229 10.6562Z" fill="black"/>
  </symbol>
  <symbol viewBox="0 0 32 32" class="icon_symbol" xmlns="http://www.w3.org/2000/svg" id="money">
    <path d="M4.26663 4.26672C4.12811 4.26719 3.98996 4.28114 3.85413 4.30839C3.84284 4.31066 3.83204 4.31427 3.8208 4.31672C3.34371 4.41868 2.91597 4.68108 2.6089 5.06018C2.30182 5.43929 2.13396 5.91219 2.1333 6.40006V19.2001C2.13376 19.3386 2.14772 19.4767 2.17497 19.6126C2.17724 19.6239 2.18085 19.6347 2.1833 19.6459C2.28526 20.123 2.54766 20.5507 2.92676 20.8578C3.30587 21.1649 3.77877 21.3327 4.26663 21.3334H27.7333C27.8718 21.3329 28.01 21.319 28.1458 21.2917C28.1571 21.2895 28.1679 21.2858 28.1791 21.2834C28.6562 21.1814 29.084 20.919 29.391 20.5399C29.6981 20.1608 29.866 19.6879 29.8666 19.2001V6.40006C29.8662 6.26153 29.8522 6.12338 29.825 5.98756C29.8227 5.97626 29.8191 5.96546 29.8166 5.95422C29.7147 5.47713 29.4523 5.04939 29.0732 4.74232C28.6941 4.43524 28.2212 4.26739 27.7333 4.26672H4.26663ZM6.39997 6.40006H25.6C25.6 6.96585 25.8247 7.50847 26.2248 7.90855C26.6249 8.30863 27.1675 8.53339 27.7333 8.53339V17.0667C27.1675 17.0667 26.6249 17.2915 26.2248 17.6916C25.8247 18.0916 25.6 18.6343 25.6 19.2001H6.39997C6.39997 18.6343 6.17521 18.0916 5.77513 17.6916C5.37505 17.2915 4.83243 17.0667 4.26663 17.0667V8.53339C4.83243 8.53339 5.37505 8.30863 5.77513 7.90855C6.17521 7.50847 6.39997 6.96585 6.39997 6.40006ZM16 8.53339C13.6437 8.53339 11.7333 10.6827 11.7333 13.3334C11.7333 14.8502 12.3708 16.1867 13.3479 17.0667H18.6521C19.6291 16.1867 20.2666 14.8502 20.2666 13.3334C20.2666 10.6827 18.3562 8.53339 16 8.53339ZM7.46663 11.7334C7.18374 11.7334 6.91243 11.8458 6.71239 12.0458C6.51235 12.2458 6.39997 12.5172 6.39997 12.8001C6.39997 13.083 6.51235 13.3543 6.71239 13.5543C6.91243 13.7543 7.18374 13.8667 7.46663 13.8667C7.74953 13.8667 8.02084 13.7543 8.22088 13.5543C8.42092 13.3543 8.5333 13.083 8.5333 12.8001C8.5333 12.5172 8.42092 12.2458 8.22088 12.0458C8.02084 11.8458 7.74953 11.7334 7.46663 11.7334ZM24.5333 11.7334C24.2504 11.7334 23.9791 11.8458 23.7791 12.0458C23.579 12.2458 23.4666 12.5172 23.4666 12.8001C23.4666 13.083 23.579 13.3543 23.7791 13.5543C23.9791 13.7543 24.2504 13.8667 24.5333 13.8667C24.8162 13.8667 25.0875 13.7543 25.2876 13.5543C25.4876 13.3543 25.6 13.083 25.6 12.8001C25.6 12.5172 25.4876 12.2458 25.2876 12.0458C25.0875 11.8458 24.8162 11.7334 24.5333 11.7334ZM27.7166 23.4521C27.665 23.4533 27.6134 23.4581 27.5625 23.4667H26.6666V24.5334V25.6001C25.772 25.6001 25.0087 26.1508 24.6916 26.9313C23.6724 26.5517 22.3969 26.1035 20.7458 25.6396C16.871 24.551 11.3094 23.4667 4.26663 23.4667C4.12529 23.4647 3.98495 23.4908 3.85379 23.5435C3.72262 23.5963 3.60324 23.6745 3.50258 23.7738C3.40192 23.873 3.32199 23.9913 3.26743 24.1217C3.21287 24.2521 3.18478 24.392 3.18478 24.5334C3.18478 24.6747 3.21287 24.8147 3.26743 24.9451C3.32199 25.0755 3.40192 25.1938 3.50258 25.293C3.60324 25.3923 3.72262 25.4705 3.85379 25.5232C3.98495 25.5759 4.12529 25.6021 4.26663 25.6001C11.0906 25.6001 16.4502 26.6491 20.1687 27.6938C22.028 28.2162 23.4745 28.7367 24.4979 29.1292C25.0096 29.3255 25.4149 29.4894 25.725 29.6105C25.88 29.671 26.0085 29.7204 26.1333 29.7626C26.2429 29.7996 26.3175 29.8462 26.5791 29.8584C26.6089 29.8611 26.6366 29.8771 26.6666 29.8771C27.8145 29.8771 28.7326 28.9696 28.7896 27.8417C28.7965 27.792 28.8 27.7419 28.8 27.6917V25.6001V24.5334V23.4667H27.8979C27.838 23.4567 27.7774 23.4518 27.7166 23.4521Z" fill="black"/>
  </symbol>
  <symbol viewBox="0 0 32 32" class="icon_symbol" xmlns="http://www.w3.org/2000/svg" id="diploma">
    <path d="M4.2667 5.33337C3.98381 5.3334 3.71252 5.44579 3.51249 5.64582C3.31245 5.84586 3.20006 6.11715 3.20003 6.40004V24.5334C3.19809 24.6888 3.23016 24.8429 3.29399 24.9846C3.35783 25.1264 3.45188 25.2525 3.56957 25.3541C3.68725 25.4558 3.82573 25.5304 3.9753 25.5729C4.12487 25.6154 4.28192 25.6246 4.43545 25.6H9.97295C9.73615 24.9323 9.60003 24.2155 9.60003 23.4667H5.33337V7.46671H26.6667V23.4667H22.4C22.4 24.2155 22.2639 24.9323 22.0271 25.6H27.5542C27.7085 25.6263 27.8667 25.6183 28.0176 25.5766C28.1684 25.5349 28.3083 25.4606 28.4272 25.3588C28.5461 25.257 28.6411 25.1302 28.7055 24.9876C28.77 24.845 28.8022 24.6899 28.8 24.5334V6.40004C28.8 6.11715 28.6876 5.84586 28.4876 5.64582C28.2876 5.44579 28.0163 5.3334 27.7334 5.33337H4.2667ZM10.6667 10.6667C10.5254 10.6647 10.385 10.6908 10.2539 10.7435C10.1227 10.7962 10.0033 10.8745 9.90265 10.9737C9.80199 11.073 9.72205 11.1912 9.6675 11.3217C9.61294 11.4521 9.58484 11.592 9.58484 11.7334C9.58484 11.8747 9.61294 12.0147 9.6675 12.1451C9.72205 12.2755 9.80199 12.3938 9.90265 12.493C10.0033 12.5923 10.1227 12.6705 10.2539 12.7232C10.385 12.7759 10.5254 12.802 10.6667 12.8H21.3334C21.4747 12.802 21.615 12.7759 21.7462 12.7232C21.8774 12.6705 21.9968 12.5923 22.0974 12.493C22.1981 12.3938 22.278 12.2755 22.3326 12.1451C22.3871 12.0147 22.4152 11.8747 22.4152 11.7334C22.4152 11.592 22.3871 11.4521 22.3326 11.3217C22.278 11.1912 22.1981 11.073 22.0974 10.9737C21.9968 10.8745 21.8774 10.7962 21.7462 10.7435C21.615 10.6908 21.4747 10.6647 21.3334 10.6667H10.6667ZM10.6667 14.9334C10.5254 14.9314 10.385 14.9575 10.2539 15.0102C10.1227 15.0629 10.0033 15.1412 9.90265 15.2404C9.80199 15.3397 9.72205 15.4579 9.6675 15.5883C9.61294 15.7187 9.58484 15.8587 9.58484 16C9.58484 16.1414 9.61294 16.2814 9.6675 16.4118C9.72205 16.5422 9.80199 16.6604 9.90265 16.7597C10.0033 16.8589 10.1227 16.9372 10.2539 16.9899C10.385 17.0426 10.5254 17.0687 10.6667 17.0667H21.3334C21.4747 17.0687 21.615 17.0426 21.7462 16.9899C21.8774 16.9372 21.9968 16.8589 22.0974 16.7597C22.1981 16.6604 22.278 16.5422 22.3326 16.4118C22.3871 16.2814 22.4152 16.1414 22.4152 16C22.4152 15.8587 22.3871 15.7187 22.3326 15.5883C22.278 15.4579 22.1981 15.3397 22.0974 15.2404C21.9968 15.1412 21.8774 15.0629 21.7462 15.0102C21.615 14.9575 21.4747 14.9314 21.3334 14.9334H10.6667ZM16 19.2C13.6563 19.2 11.7334 21.1229 11.7334 23.4667C11.7334 24.5335 12.1449 25.5013 12.8 26.2521V32L16 29.8667L19.2 32V26.2521C19.8552 25.5013 20.2667 24.5335 20.2667 23.4667C20.2667 21.1229 18.3438 19.2 16 19.2ZM16 21.3334C17.1909 21.3334 18.1334 22.2759 18.1334 23.4667C18.1334 24.6575 17.1909 25.6 16 25.6C14.8092 25.6 13.8667 24.6575 13.8667 23.4667C13.8667 22.2759 14.8092 21.3334 16 21.3334Z" fill="black"/>
  </symbol>
  <symbol viewBox="0 0 32 32" class="icon_symbol" xmlns="http://www.w3.org/2000/svg" id="close">
    <path d="M8.51046 6.37922C8.08625 6.37975 7.67182 6.50672 7.32012 6.74392C6.96842 6.98112 6.69542 7.31778 6.53598 7.7109C6.37654 8.10401 6.33792 8.53573 6.42503 8.9509C6.51214 9.36607 6.72104 9.74585 7.02505 10.0417L12.9834 16.0001L7.02505 21.9584C6.8203 22.155 6.65684 22.3904 6.54424 22.651C6.43163 22.9115 6.37214 23.1919 6.36925 23.4757C6.36636 23.7595 6.42014 24.0411 6.52742 24.3039C6.6347 24.5666 6.79334 24.8054 6.99404 25.0061C7.19474 25.2068 7.43347 25.3654 7.69625 25.4727C7.95903 25.58 8.24057 25.6337 8.52439 25.6309C8.80821 25.628 9.0886 25.5685 9.34914 25.4559C9.60968 25.3433 9.84514 25.1798 10.0417 24.9751L16 19.0167L21.9584 24.9751C22.155 25.1798 22.3904 25.3433 22.651 25.4559C22.9115 25.5685 23.1919 25.628 23.4757 25.6309C23.7595 25.6338 24.0411 25.58 24.3039 25.4727C24.5666 25.3654 24.8054 25.2068 25.0061 25.0061C25.2068 24.8054 25.3654 24.5666 25.4727 24.3039C25.58 24.0411 25.6337 23.7595 25.6309 23.4757C25.628 23.1919 25.5685 22.9115 25.4559 22.651C25.3433 22.3904 25.1798 22.155 24.975 21.9584L19.0167 16.0001L24.975 10.0417C25.2833 9.74207 25.4939 9.35628 25.5791 8.9349C25.6644 8.51353 25.6203 8.07623 25.4528 7.68031C25.2852 7.28439 25.002 6.94833 24.6401 6.71616C24.2783 6.48399 23.8548 6.36655 23.425 6.37922C22.8708 6.39574 22.3448 6.62737 21.9584 7.02506L16 12.9834L10.0417 7.02506C9.84266 6.82044 9.60458 6.65786 9.34155 6.54692C9.07853 6.43599 8.79592 6.37896 8.51046 6.37922V6.37922Z" fill="black"/>
  </symbol>
  <symbol viewBox="0 0 32 32" class="icon_symbol" xmlns="http://www.w3.org/2000/svg" id="checkmark">
    <path d="M28.78 6.39c-.278.008-.54.124-.734.323L11.733 23.025l-6.712-6.712a1.068 1.068 0 1 0-1.508 1.508l7.466 7.466a1.067 1.067 0 0 0 1.509 0L29.553 8.222a1.067 1.067 0 0 0-.775-1.831z" fill="#000"></path>
  </symbol>
  <symbol viewBox="0 0 32 32" class="icon_symbol" xmlns="http://www.w3.org/2000/svg" id="chevron-up">
    <path d="M28.8 19.2v2.133a1.069 1.069 0 0 1-1.743.826L16 13.11 4.942 22.16a1.068 1.068 0 0 1-1.742-.826V19.2c0-.32.144-.623.391-.826l11.734-9.6a1.069 1.069 0 0 1 1.351 0l11.734 9.6c.246.203.39.506.39.826z" fill="#000"></path>
  </symbol>
  <symbol viewBox="0 0 32 32" class="icon_symbol" xmlns="http://www.w3.org/2000/svg" id="docs">
    <path d="M7.467 4.267A2.133 2.133 0 0 0 5.333 6.4v14.933c0 1.18.955 2.134 2.134 2.134v-12.8A4.271 4.271 0 0 1 11.733 6.4H22.4a2.133 2.133 0 0 0-2.133-2.133h-12.8zm4.266 4.266A2.133 2.133 0 0 0 9.6 10.667V25.6c0 1.179.955 2.133 2.133 2.133h12.8a2.133 2.133 0 0 0 2.134-2.133V10.667a2.133 2.133 0 0 0-2.134-2.134h-12.8zm2.134 4.267H22.4a1.067 1.067 0 0 1 0 2.133h-8.533a1.067 1.067 0 0 1 0-2.133zm0 4.267H22.4a1.067 1.067 0 0 1 0 2.133h-8.533a1.067 1.067 0 0 1 0-2.133zm0 4.266H22.4a1.067 1.067 0 0 1 0 2.134h-8.533a1.067 1.067 0 0 1 0-2.134z"
      fill="#000"></path>
  </symbol>
  <symbol viewBox="0 0 32 32" class="icon_symbol" xmlns="http://www.w3.org/2000/svg" id="document">
    <path d="M26.354 9.38l-6.933-6.934c-.2-.2-.472-.313-.754-.313h-11.2a2.133 2.133 0 0 0-2.134 2.134v23.466c0 1.179.955 2.134 2.134 2.134h17.066a2.133 2.133 0 0 0 2.134-2.134v-17.6c0-.282-.112-.553-.313-.754zM19.2 22.4h-8.533a1.067 1.067 0 0 1 0-2.133H19.2a1.067 1.067 0 0 1 0 2.133zm2.133-4.267H10.667a1.067 1.067 0 0 1 0-2.133h10.666a1.067 1.067 0 0 1 0 2.133zM19.2 10.667A1.067 1.067 0 0 1 18.133 9.6V4.164l6.503 6.503H19.2z"
      fill="#000"></path>
  </symbol>
  <symbol viewBox="0 0 32 32" class="icon_symbol" xmlns="http://www.w3.org/2000/svg" id="dot-small">
    <path d="M20 16C20 18.2091 18.2091 20 16 20C13.7909 20 12 18.2091 12 16C12 13.7909 13.7909 12 16 12C18.2091 12 20 13.7909 20 16Z" fill="black"/>
  </symbol>
  <symbol viewBox="0 0 32 32" class="icon_symbol" xmlns="http://www.w3.org/2000/svg" id="facebook">
    <path d="M16 3.2C8.931 3.2 3.2 8.93 3.2 16c0 6.417 4.727 11.716 10.886 12.642v-9.25H10.92v-3.364h3.167v-2.24c0-3.706 1.806-5.333 4.887-5.333 1.475 0 2.256.11 2.625.16v2.936h-2.101c-1.308 0-1.765 1.24-1.765 2.638v1.839h3.833l-.52 3.364h-3.313v9.277C23.98 27.822 28.8 22.479 28.8 16c0-7.069-5.731-12.8-12.8-12.8z"
      fill="#000"></path>
  </symbol>
  <symbol viewBox="0 0 32 32" class="icon_symbol" xmlns="http://www.w3.org/2000/svg" id="fast-forward">
    <path d="M4.267 6.4A1.067 1.067 0 0 0 3.2 7.467v17.066a1.066 1.066 0 0 0 1.698.859H4.9l.03-.023L16 17.319v7.21a1.066 1.066 0 0 0 1.698.863h.002l.03-.023 11.647-8.471a1.066 1.066 0 0 0 .017-1.783L17.7 6.608a1.067 1.067 0 0 0-1.7.863v7.212L4.9 6.608a1.067 1.067 0 0 0-.633-.208z"
      fill="#000"></path>
  </symbol>
  <symbol viewBox="0 0 32 32" class="icon_symbol" xmlns="http://www.w3.org/2000/svg" id="forward">
    <path d="M10.656 4.256a1.067 1.067 0 0 0-.744 1.831L19.825 16l-9.913 9.913a1.067 1.067 0 1 0 1.509 1.508l10.666-10.667a1.066 1.066 0 0 0 0-1.508L11.421 4.579a1.067 1.067 0 0 0-.765-.323z" fill="#000"></path>
  </symbol>
  <symbol viewBox="0 0 32 32" class="icon_symbol" xmlns="http://www.w3.org/2000/svg" id="globe">
    <path d="M16 3.2C8.943 3.2 3.2 8.943 3.2 16S8.943 28.8 16 28.8 28.8 23.057 28.8 16 23.057 3.2 16 3.2zm0 2.133c.42 0 .854.174 1.35.636.496.461 1.01 1.206 1.45 2.175.2.44.381.932.548 1.456h-6.696c.166-.524.348-1.016.548-1.456.44-.969.954-1.714 1.45-2.175.496-.462.93-.636 1.35-.636zm-4.173.846c-.2.342-.394.698-.569 1.083a16.283 16.283 0 0 0-.833 2.338H7.473a10.66 10.66 0 0 1 4.354-3.42zm8.346 0a10.66 10.66 0 0 1 4.354 3.42h-2.952a16.313 16.313 0 0 0-.833-2.337 11.716 11.716 0 0 0-.57-1.083zm-13.95 5.554h3.729a25.054 25.054 0 0 0-.327 3.2h-4.24c.112-1.129.404-2.203.838-3.2zm5.898 0h7.758c.187.998.313 2.072.363 3.2h-8.484c.05-1.128.176-2.202.363-3.2zm9.927 0h3.729c.434.997.726 2.071.837 3.2h-4.239a25.063 25.063 0 0 0-.327-3.2zM5.385 17.067h4.24c.043 1.114.155 2.184.327 3.2h-3.73a10.615 10.615 0 0 1-.837-3.2zm6.373 0h8.484a22.778 22.778 0 0 1-.363 3.2h-7.758a22.778 22.778 0 0 1-.363-3.2zm10.617 0h4.24a10.613 10.613 0 0 1-.838 3.2h-3.73c.172-1.016.285-2.086.328-3.2zM7.473 22.4h2.952c.234.84.51 1.627.833 2.337.175.386.368.742.569 1.084A10.66 10.66 0 0 1 7.473 22.4zm5.179 0h6.696a13.225 13.225 0 0 1-.548 1.456c-.44.969-.954 1.713-1.45 2.175-.496.462-.93.636-1.35.636-.42 0-.854-.174-1.35-.636-.496-.461-1.01-1.206-1.45-2.175-.2-.44-.382-.932-.548-1.456zm8.923 0h2.952a10.66 10.66 0 0 1-4.354 3.42c.2-.341.394-.698.569-1.083.323-.71.598-1.497.833-2.337z"
      fill="#000"></path>
  </symbol>
  <symbol viewBox="0 0 32 32" class="icon_symbol" xmlns="http://www.w3.org/2000/svg" id="info">
    <path d="M16 3.2C8.931 3.2 3.2 8.93 3.2 16c0 7.069 5.731 12.8 12.8 12.8 7.069 0 12.8-5.731 12.8-12.8 0-7.069-5.731-12.8-12.8-12.8zm1.067 19.2h-2.134v-7.467h2.134V22.4zM16 12.267a1.6 1.6 0 1 1 .001-3.202A1.6 1.6 0 0 1 16 12.267z" fill="#000"></path>
  </symbol>
  <symbol viewBox="0 0 32 32" class="icon_symbol" xmlns="http://www.w3.org/2000/svg" id="instagram">
    <path d="M10.665 3.2C6.548 3.2 3.2 6.551 3.2 10.669v10.666c0 4.117 3.351 7.465 7.469 7.465h10.666c4.117 0 7.465-3.352 7.465-7.469V10.665c0-4.117-3.352-7.465-7.469-7.465H10.665zm12.802 4.267a1.067 1.067 0 1 1-.001 2.134 1.067 1.067 0 0 1 0-2.134zM16 9.6c3.53 0 6.4 2.87 6.4 6.4 0 3.53-2.87 6.4-6.4 6.4-3.53 0-6.4-2.87-6.4-6.4 0-3.53 2.87-6.4 6.4-6.4zm0 2.133a4.266 4.266 0 1 0 0 8.533 4.266 4.266 0 0 0 0-8.533z"
      fill="#000"></path>
  </symbol>
  <symbol viewBox="0 0 32 32" class="icon_symbol" xmlns="http://www.w3.org/2000/svg" id="link">
    <path d="M27.712 3.19a.772.772 0 0 0-.118.01h-6.26a1.067 1.067 0 1 0 0 2.133h3.824L14.18 16.313a1.067 1.067 0 1 0 1.508 1.508l10.98-10.98v3.826a1.067 1.067 0 1 0 2.133 0V4.402a1.065 1.065 0 0 0-1.088-1.212zM6.4 7.467A2.15 2.15 0 0 0 4.267 9.6v16A2.15 2.15 0 0 0 6.4 27.733h16a2.15 2.15 0 0 0 2.133-2.133V12.183L22.4 14.317V25.6h-16v-16h11.283l2.134-2.133H6.4z"
      fill="#000"></path>
  </symbol>
  <symbol viewBox="0 0 32 32" class="icon_symbol" xmlns="http://www.w3.org/2000/svg" id="linkedin">
    <path d="M16 3.2C8.931 3.2 3.2 8.93 3.2 16c0 7.069 5.731 12.8 12.8 12.8 7.069 0 12.8-5.731 12.8-12.8 0-7.069-5.731-12.8-12.8-12.8zm-4.804 5.763c.898 0 1.496.599 1.496 1.396 0 .798-.598 1.397-1.595 1.397-.899 0-1.497-.599-1.497-1.397 0-.797.598-1.396 1.596-1.396zm1.604 12.37H9.6V12.8h3.2v8.533zm10.667 0h-3.013V16.67c0-1.29-.803-1.587-1.104-1.587-.3 0-1.305.198-1.305 1.587v4.663h-3.112V12.8h3.113v1.19c.4-.694 1.204-1.19 2.71-1.19s2.71 1.19 2.71 3.87v4.663z"
      fill="#000"></path>
  </symbol>
  <symbol viewBox="0 0 32 32" class="icon_symbol" xmlns="http://www.w3.org/2000/svg" id="list">
    <path d="M3.2 5.333V9.6h4.267V5.333H3.2zM12.8 6.4a1.067 1.067 0 1 0 0 2.133h14.933a1.066 1.066 0 1 0 0-2.133H12.8zm-9.6 7.467v4.266h4.267v-4.266H3.2zm9.6 1.066a1.067 1.067 0 1 0 0 2.134h14.933a1.067 1.067 0 1 0 0-2.134H12.8zM3.2 22.4v4.267h4.267V22.4H3.2zm9.6 1.067a1.067 1.067 0 1 0 0 2.133h14.933a1.067 1.067 0 1 0 0-2.133H12.8z"
      fill="#000"></path>
  </symbol>
  <symbol viewBox="0 0 32 32" class="icon_symbol" xmlns="http://www.w3.org/2000/svg" id="lock">
    <path d="M16 2.133c-4.111 0-7.467 3.356-7.467 7.467v2.133H6.4a2.133 2.133 0 0 0-2.133 2.134v12.8c0 1.178.954 2.133 2.133 2.133h19.2a2.133 2.133 0 0 0 2.133-2.133v-12.8a2.133 2.133 0 0 0-2.133-2.134h-2.133V9.6c0-3.977-3.161-7.18-7.088-7.39a1.066 1.066 0 0 0-.38-.077zm0 2.134A5.317 5.317 0 0 1 21.333 9.6v2.133H10.667V9.6A5.317 5.317 0 0 1 16 4.267z"
      fill="#000"></path>
  </symbol>
  <symbol viewBox="0 0 32 32" class="icon_symbol" xmlns="http://www.w3.org/2000/svg" id="payments">
    <path d="M10.667 2.133a2.133 2.133 0 0 0-2.134 2.134v9.6a1.067 1.067 0 0 0 0 2.133h14.934a1.067 1.067 0 0 0 0-2.133v-9.6a2.133 2.133 0 0 0-2.134-2.134h-7.466v12.8h-2.134v-12.8h-1.066zm-5.334 3.2A2.133 2.133 0 0 0 3.2 7.467v13.866c0 1.179.955 2.134 2.133 2.134h21.334a2.133 2.133 0 0 0 2.133-2.134V7.467a2.133 2.133 0 0 0-2.133-2.134H25.6v2.134h1.067V19.2H5.333V7.467H6.4V5.333H5.333zM16 20.267a1.067 1.067 0 1 1-.001 2.134A1.067 1.067 0 0 1 16 20.267zM10.667 25.6a1.067 1.067 0 1 0 0 2.133h10.666a1.067 1.067 0 1 0 0-2.133H10.667z"
      fill="#000"></path>
  </symbol>
  <symbol viewBox="0 0 32 32" class="icon_symbol" xmlns="http://www.w3.org/2000/svg" id="play">
    <path d="M6.4 3.36v25.277L27.885 16 6.4 3.36z" fill="#000"></path>
  </symbol>
  <symbol viewBox="0 0 32 32" class="icon_symbol" xmlns="http://www.w3.org/2000/svg" id="play-button">
    <path d="M16 4.267c-4.465 0-10.26 1.118-10.26 1.118l-.015.017A4.256 4.256 0 0 0 2.133 9.6v12.802a4.267 4.267 0 0 0 3.602 4.206l.005.007s5.795 1.12 10.26 1.12 10.26-1.12 10.26-1.12l.002-.002a4.267 4.267 0 0 0 3.605-4.21V9.6a4.267 4.267 0 0 0-3.602-4.208l-.005-.007S20.465 4.267 16 4.267zm-3.2 6.825L21.333 16 12.8 20.908v-9.816z"
      fill="#000"></path>
  </symbol>
  <symbol viewBox="0 0 32 32" class="icon_symbol" xmlns="http://www.w3.org/2000/svg" id="play-circle">
    <path d="M16 3.2C8.931 3.2 3.2 8.93 3.2 16c0 7.069 5.731 12.8 12.8 12.8 7.069 0 12.8-5.731 12.8-12.8 0-7.069-5.731-12.8-12.8-12.8zm5.658 13.229l-8.116 4.685c-.408.235-.742.042-.742-.43v-9.37c0-.471.334-.664.742-.429l8.116 4.685c.408.237.408.623 0 .859z"
      fill="#000"></path>
  </symbol>
  <symbol viewBox="0 0 32 32" class="icon_symbol" xmlns="http://www.w3.org/2000/svg" id="quick">
    <path d="M18.133 2.133a1.067 1.067 0 0 0-.935.557l-8.48 13.772v.003a1.066 1.066 0 0 0 .882 1.668h5.867l-1.58 10.454a1.067 1.067 0 0 0 .292.967 1.066 1.066 0 0 0 1.696-.256h.002l8.45-13.735-.01-.02c.126-.175.216-.377.216-.61 0-.588-.477-1.066-1.066-1.066H17.6l1.552-10.352a1.065 1.065 0 0 0-1.019-1.382z"
      fill="#000"></path>
  </symbol>
  <symbol viewBox="0 0 32 32" class="icon_symbol" xmlns="http://www.w3.org/2000/svg" id="quote">
    <path d="M16 3.2C8.341 3.2 2.133 8.453 2.133 14.933c0 3.593 1.913 6.804 4.92 8.957.076 1.638-.178 3.9-2.438 4.943l-.005.002a.533.533 0 0 0 .236 1.03c2.596-.017 4.8-1.42 6.32-2.902.483-.47 1.155-.702 1.817-.578.971.185 1.98.282 3.017.282 7.659 0 13.867-5.254 13.867-11.734S23.659 3.2 16 3.2zm-4.267 7.467H12.8c1.179 0 2.133.954 2.133 2.133v1.067c0 4.787-2.444 6.147-2.723 6.287a1.066 1.066 0 0 1-.954-1.908c.029-.017.884-.53 1.309-2.246h-.832A2.133 2.133 0 0 1 9.6 13.867V12.8c0-1.179.955-2.133 2.133-2.133zm7.467 0h1.067c1.178 0 2.133.954 2.133 2.133v1.067c0 4.787-2.444 6.147-2.723 6.287a1.066 1.066 0 0 1-.954-1.908c.029-.017.884-.53 1.308-2.246H19.2a2.133 2.133 0 0 1-2.133-2.133V12.8c0-1.179.954-2.133 2.133-2.133z"
      fill="#000"></path>
  </symbol>
  <symbol viewBox="0 0 32 32" class="icon_symbol" xmlns="http://www.w3.org/2000/svg" id="safety-float">
    <path d="M27.678 17.102A11.8 11.8 0 0 0 27.733 16c0-.372-.021-.74-.055-1.102.585-.09 1.011-.632.9-1.236a12.796 12.796 0 0 0-10.24-10.238c-.604-.112-1.145.314-1.236.9-.013-.003-.025-.002-.036-.003v1.012a1.067 1.067 0 0 1-2.134 0V4.321l-.035.002c-.09-.585-.632-1.011-1.236-.899A12.795 12.795 0 0 0 3.424 13.662c-.112.604.314 1.145.9 1.236-.002.015 1.065.031 1.064.046A1.06 1.06 0 0 1 6.4 16c0 .57-.45 1.026-1.013 1.056 0 .015-1.066.03-1.065.046-.585.09-1.011.632-.899 1.236a12.796 12.796 0 0 0 10.238 10.238c.604.112 1.145-.314 1.236-.9.364.036.73.057 1.103.057.372 0 .74-.021 1.102-.055.09.585.632 1.011 1.236.899a12.796 12.796 0 0 0 10.238-10.238c.112-.605-.313-1.146-.898-1.237zm-3.145-.035h-1.388c-.458 0-.88.288-1.008.727a6.4 6.4 0 0 1-4.343 4.343c-.44.129-.727.55-.727 1.009v1.387a1.067 1.067 0 0 1-2.134 0v-1.388c0-.458-.288-.88-.727-1.008a6.4 6.4 0 0 1-4.342-4.343c-.13-.44-.55-.727-1.01-.727H8.62A7.494 7.494 0 0 1 8.533 16c0-.363.036-.717.086-1.067h.237c.457 0 .88-.288 1.008-.727a6.4 6.4 0 0 1 4.342-4.343c.44-.129.727-.55.727-1.009V8.62c.35-.05.704-.086 1.067-.086s.717.035 1.067.086v.236c0 .458.288.88.727 1.008a6.4 6.4 0 0 1 4.343 4.343c.129.44.55.727 1.009.727h1.387a1.067 1.067 0 0 1 0 2.134z"
      fill="#000"></path>
  </symbol>
  <symbol viewBox="0 0 32 32" class="icon_symbol" xmlns="http://www.w3.org/2000/svg" id="shop">
    <path d="M6.4 3.2a2.133 2.133 0 0 0-2.133 2.133V6.4l-3.2 4.267a2.133 2.133 0 1 0 4.266 0L7.467 6.4h3.2L9.6 10.667a2.133 2.133 0 1 0 4.267 0V6.4h4.266v4.267a2.133 2.133 0 1 0 4.267 0L21.333 6.4h3.2l2.134 4.267a2.133 2.133 0 1 0 4.266 0l-3.2-4.267V5.333A2.133 2.133 0 0 0 25.6 3.2H6.4zm7.467 11.14a4.223 4.223 0 0 1-2.134.593 4.212 4.212 0 0 1-2.127-.591 4.22 4.22 0 0 1-2.14.591 4.22 4.22 0 0 1-2.12-.587 4.23 4.23 0 0 1-2.146.587v11.734c0 1.178.955 2.133 2.133 2.133h12.8V18.133h6.4V28.8h2.134a2.133 2.133 0 0 0 2.133-2.133V14.933a4.23 4.23 0 0 1-2.146-.587 4.22 4.22 0 0 1-2.12.587 4.22 4.22 0 0 1-2.14-.591 4.212 4.212 0 0 1-2.127.591 4.216 4.216 0 0 1-2.134-.594 4.223 4.223 0 0 1-2.133.594c-.78 0-1.503-.226-2.133-.594zm-6.4 3.793h6.4v6.4h-6.4v-6.4z"
      fill="#000"></path>
  </symbol>
  <symbol viewBox="0 0 32 32" class="icon_symbol" xmlns="http://www.w3.org/2000/svg" id="shopping">
    <path d="M8.533 3.2c-.98 0-1.798.664-2.048 1.565h-.008L5.333 8.533a2.133 2.133 0 1 0 4.267 0 2.133 2.133 0 1 0 4.267 0 2.133 2.133 0 1 0 4.266 0 2.133 2.133 0 1 0 4.267 0 2.133 2.133 0 1 0 4.267 0l-1.144-3.768h-.008A2.128 2.128 0 0 0 23.467 3.2H8.533zm-.016 9.585a1.067 1.067 0 0 0-1.05 1.082V25.6c0 1.755 1.445 3.2 3.2 3.2h10.666c1.755 0 3.2-1.445 3.2-3.2V13.867a1.069 1.069 0 0 0-1.478-1 1.068 1.068 0 0 0-.655 1V25.6a1.05 1.05 0 0 1-1.067 1.067H10.667A1.05 1.05 0 0 1 9.6 25.6V13.867a1.067 1.067 0 0 0-1.083-1.082zM16 22.4a1.066 1.066 0 1 0 0 2.132 1.066 1.066 0 0 0 0-2.132z"
      fill="#000"></path>
  </symbol>
  <symbol viewBox="0 0 32 32" class="icon_symbol" xmlns="http://www.w3.org/2000/svg" id="transfer">
    <path d="M24.533 3.2v3.2H4.267a1.067 1.067 0 1 0 0 2.133h20.266v3.2L28.8 7.467 24.533 3.2zM7.467 20.267L3.2 24.533 7.467 28.8v-3.2h20.266a1.067 1.067 0 1 0 0-2.133H7.467v-3.2z" fill="#000"></path>
  </symbol>
  <symbol viewBox="0 0 32 32" class="icon_symbol" xmlns="http://www.w3.org/2000/svg" id="truck">
    <g clip-path="url(#clip0)">
      <path d="M3.2 5.333a2.133 2.133 0 0 0-2.133 2.134V22.4a1.067 1.067 0 1 0 0 2.133H4.32c.265 1.798 1.813 3.2 3.68 3.2 1.867 0 3.415-1.402 3.68-3.2h9.708c.263 1.798 1.812 3.2 3.679 3.2 1.866 0 3.415-1.402 3.679-3.2h2.187a1.067 1.067 0 1 0 0-2.133v-5.333h-6.4V12.8c0-.589.478-1.067 1.067-1.067h3.048l-.36-.84a2.134 2.134 0 0 0-1.96-1.293H19.2V7.467a2.133 2.133 0 0 0-2.133-2.134H3.2zM8 22.4c.896 0 1.6.704 1.6 1.6 0 .896-.704 1.6-1.6 1.6-.896 0-1.6-.704-1.6-1.6 0-.896.704-1.6 1.6-1.6zm17.067 0c.896 0 1.6.704 1.6 1.6 0 .896-.704 1.6-1.6 1.6-.897 0-1.6-.704-1.6-1.6 0-.896.703-1.6 1.6-1.6z"
        fill="#000"></path>
    </g>
    <defs>
      <clipPath id="clip0">
        <path fill="#fff" d="M0 0h32v32H0z"></path>
      </clipPath>
    </defs>
  </symbol>
  <symbol viewBox="0 0 32 32" class="icon_symbol" xmlns="http://www.w3.org/2000/svg" id="user">
    <path d="M16 3.2C8.931 3.2 3.2 8.93 3.2 16c0 7.069 5.731 12.8 12.8 12.8 7.069 0 12.8-5.731 12.8-12.8 0-7.069-5.731-12.8-12.8-12.8zM8.533 23.617c1.245-3.733 4.978-2.276 5.6-4.299V17.97c-.28-.15-1.08-1.183-1.164-1.99-.221-.018-.567-.237-.67-1.102-.054-.464.164-.726.295-.808 0 0-.328-.748-.328-1.492 0-2.21 1.095-4.045 3.734-4.045 1.425 0 1.867 1.01 1.867 1.01 1.273 0 1.866 1.397 1.866 3.034 0 .816-.328 1.492-.328 1.492.132.082.35.344.295.808-.102.865-.448 1.083-.669 1.103-.084.806-.884 1.839-1.164 1.989v1.348c.621 2.024 4.355.567 5.6 4.3 0 0-2.793 3.05-7.467 3.05-4.7 0-7.467-3.05-7.467-3.05z"
      fill="#000"></path>
  </symbol>
  <symbol viewBox="0 0 32 32" class="icon_symbol" xmlns="http://www.w3.org/2000/svg" id="wrench">
    <path d="M21.333 3.2a7.467 7.467 0 0 0-7.466 7.467c0 .95.184 1.855.508 2.691l-6.908 6.909A4.283 4.283 0 0 0 3.2 24.533 4.283 4.283 0 0 0 7.467 28.8a4.283 4.283 0 0 0 4.266-4.267l6.909-6.908a7.437 7.437 0 0 0 2.691.508 7.467 7.467 0 0 0 7.467-7.466c0-.95-.185-1.856-.508-2.692l-3.759 3.758h-4.266V7.467l3.758-3.759a7.445 7.445 0 0 0-2.692-.508zM7.467 22.4c1.19 0 2.133.942 2.133 2.133a2.117 2.117 0 0 1-2.133 2.134 2.117 2.117 0 0 1-2.134-2.134c0-1.19.943-2.133 2.134-2.133z"
      fill="#000"></path>
  </symbol>
</svg>