<svg width="143" height="40" viewBox="0 0 143 40" fill="none" xmlns="http://www.w3.org/2000/svg">
<path d="M47.7674 31.4056H43.2192V8.63385H55.944V12.197H47.7674V17.1917H53.4503V20.7901H47.7674V31.4056Z" fill="white"/>
<path d="M60.6011 13.298C59.319 13.298 58.2549 12.5276 58.2549 11.2051C58.2549 9.9564 59.319 9.22131 60.6011 9.22131C61.9217 9.22131 62.9473 9.9564 62.9473 11.2404C62.9473 12.5276 61.9217 13.298 60.6011 13.298ZM58.585 16.0522H62.6172V31.4024H58.585V16.0522Z" fill="white"/>
<path d="M77.0313 23.2137C77.0313 20.5333 76.2621 19.1017 74.1338 19.1017C71.935 19.1017 70.6497 21.1593 70.6497 23.9135V31.4056H66.6528V16.0522H70.6497V18.4019C71.31 17.3362 72.887 15.7954 75.2332 15.7954C79.2654 15.7954 81.102 18.2575 81.102 23.0307V31.4056H77.0313V23.2137Z" fill="white"/>
<path d="M90.3072 31.5886C86.3455 31.5886 84.9897 29.7525 84.9897 25.5666V19.2108H82.2012L83.0441 16.0522H84.9865V12.8582L89.0187 11.9755V16.0522H92.7239V19.2108H89.0187V25.6372C89.0187 27.2904 89.2751 28.0255 90.2655 28.2438C91.0732 28.4267 91.9899 28.3914 93.0541 28.2791L92.2848 31.5469C91.9194 31.5501 91.2944 31.5886 90.3072 31.5886Z" fill="white"/>
<path d="M102.663 28.3914C104.606 28.3914 105.743 27.6564 106.66 26.9598L108.529 29.8231C106.4 31.2933 104.567 31.6592 102.589 31.6592C97.4547 31.6592 94.3008 28.5744 94.3008 23.6888C94.3008 18.9155 97.5637 15.7569 101.817 15.7569C105.779 15.7569 108.894 18.4019 108.894 22.9537C108.894 23.7626 108.82 24.6422 108.82 24.6422H98.2592C98.3362 27.146 100.279 28.3914 102.663 28.3914ZM98.4099 21.6729H105.378C105.157 19.763 103.766 18.7358 101.932 18.7358C100.243 18.7325 98.9227 19.7983 98.4099 21.6729Z" fill="white"/>
<path d="M111.43 23.692C111.43 18.6234 114.914 15.7215 119.606 15.7215C122.504 15.7215 124.485 16.9702 124.703 17.0794L124.116 20.421C124.116 20.421 122.318 19.0246 119.898 19.0246C117.439 19.0246 115.388 20.6039 115.388 23.6535C115.388 26.703 117.404 28.3529 119.824 28.3529C122.097 28.3529 123.638 27.0304 123.786 26.9212L125.472 29.8969C123.456 31.1809 121.51 31.6592 119.603 31.6592C114.84 31.6624 111.43 28.7606 111.43 23.692Z" fill="white"/>
<path d="M138.418 23.8396C138.418 20.7548 137.866 19.1017 135.52 19.1017C132.549 19.1017 132.036 21.9297 132.036 25.2713V31.4056H128.039V9.11214L132.036 8.30322V18.4019C132.696 17.3362 134.382 15.7954 136.728 15.7954C141.568 15.7954 142.485 18.954 142.485 25.0883V31.4056H138.414V23.8396H138.418Z" fill="white"/>
<path d="M12.2505 19.7533C12.2505 23.9359 15.648 27.3385 19.8244 27.3385C24.0008 27.3385 27.3984 23.9359 27.3984 19.7533C27.3984 15.5707 24.0008 12.1681 19.8244 12.1681C15.648 12.1681 12.2505 15.5739 12.2505 19.7533ZM25.1771 19.7533C25.1771 22.7097 22.7764 25.1172 19.8212 25.1172C16.8692 25.1172 14.4653 22.7129 14.4653 19.7533C14.4653 16.7969 16.866 14.3894 19.8212 14.3894C22.7764 14.3926 25.1771 16.7969 25.1771 19.7533Z" fill="white"/>
<path d="M28.3694 28.2245C28.3309 28.263 28.2572 28.3368 28.2572 28.3368C26.0905 30.4843 23.1128 31.8133 19.8243 31.8133C14.6959 31.8133 10.3208 28.5872 8.60922 24.0515C8.5932 24.0065 8.57397 23.9616 8.55794 23.9167C8.53871 23.8653 8.52268 23.8107 8.50345 23.7594C7.06431 19.5864 7.97779 14.7682 11.2696 11.4105L11.2664 11.4073C12.4619 10.1875 13.9139 9.21806 15.5389 8.59532C19.7826 6.97427 24.7796 7.86344 28.2284 11.2532L29.0649 12.0782L32.8375 8.22938C32.8439 8.2358 32.8503 8.24222 32.8535 8.24864L34.6388 6.43178C34.4209 6.19424 34.1933 5.95991 33.9625 5.732C29.5938 1.43701 23.7667 -0.437631 18.1223 0.0856C13.5837 0.50611 9.16052 2.47705 5.71811 5.9888C2.25327 9.52301 0.375011 14.017 0.0544888 18.5977H0.0448731L0.0128209 19.1627L0 19.8656V20.3857L0.0224365 20.9282H0.0256418C0.250007 25.7945 2.23404 30.5903 5.97774 34.2721C10.34 38.5607 16.1671 40.4353 21.8115 39.9153C26.3469 39.4948 30.7669 37.5271 34.2093 34.0186L30.0554 29.8809L28.3694 28.2245ZM18.3595 2.61829C23.0103 2.18815 27.5905 3.63265 31.1387 6.5987L28.9976 8.78471C25.6418 5.98238 21.3019 4.95839 17.2281 5.70632L16.5229 2.89435C17.1255 2.76916 17.7377 2.67607 18.3595 2.61829ZM7.53227 7.77035C9.42655 5.83793 11.7375 4.387 14.26 3.51067L14.9139 6.11399L14.9684 6.32585C12.9267 7.06415 11.0837 8.23901 9.59643 9.75734C7.16687 12.2355 5.82068 15.3781 5.54824 18.5913H2.60264C2.92316 14.521 4.63795 10.7236 7.53227 7.77035ZM13.8433 36.3394C11.5933 35.4952 9.5163 34.1823 7.75984 32.4521C4.61872 29.364 2.79816 25.2938 2.57059 20.9217H5.53862C5.79504 24.2666 7.20534 27.5376 9.77913 30.067C11.2247 31.4859 12.8946 32.5323 14.6735 33.2161L13.8433 36.3394ZM21.5808 37.3794C19.7217 37.5528 17.8723 37.4212 16.0934 37.0167L16.9268 33.8773C17.3851 33.9704 17.8499 34.0442 18.3146 34.0956C18.3819 34.102 18.4493 34.1084 18.5166 34.1149C18.6704 34.1277 18.8211 34.1405 18.9749 34.1502C19.0711 34.1566 19.164 34.1598 19.2602 34.163C19.3852 34.1662 19.507 34.1694 19.632 34.1726C19.7025 34.1726 19.7698 34.1791 19.8371 34.1791C19.8852 34.1791 19.9301 34.1758 19.9781 34.1758C20.0679 34.1758 20.1576 34.1726 20.2474 34.1694C22.7731 34.0988 25.1321 33.3733 27.1642 32.16C27.1674 32.16 27.1674 32.1567 27.1707 32.1567C27.3341 32.0572 27.4976 31.9545 27.6579 31.8518C27.6835 31.8358 27.7059 31.8197 27.7316 31.8036C27.8854 31.7009 28.0329 31.5982 28.1835 31.4923C28.2027 31.4794 28.2188 31.4666 28.238 31.4538L30.5874 33.842C27.9912 35.8322 24.8661 37.0745 21.5808 37.3794Z" fill="white"/>
</svg>
