<svg width="99" height="32" viewBox="0 0 99 32" fill="none" xmlns="http://www.w3.org/2000/svg">
<path d="M29.1848 0.566288L20.8589 21.6297L17.4894 3.72042C17.0943 1.72101 15.5359 0.563124 13.7974 0.563124H0.189655L0 1.46159C2.79425 2.07217 5.96782 3.04973 7.89282 4.09689C9.06552 4.73277 9.4069 5.28957 9.79253 6.81443L16.1713 31.5128H24.6299L37.5865 0.566288H29.1848ZM41.0193 0.566288L34.4066 31.5128H42.3974L49.0195 0.566288H41.0193ZM86.8874 8.93089L89.3055 20.5445H82.6738L86.8874 8.93089ZM85.7115 0.566288C84.169 0.566288 82.8793 1.46159 82.3072 2.8346L70.2989 31.5128H78.7037L80.3695 26.8939H90.6299L91.5971 31.5128H99L92.5391 0.566288H85.7115ZM51.1974 10.2343C51.1437 14.6918 55.1675 17.1753 58.1957 18.6559C61.3124 20.1712 62.3618 21.1488 62.3523 22.5028C62.3238 24.5845 59.8615 25.4988 57.5572 25.5336C53.5333 25.5968 51.2037 24.439 49.342 23.5784L47.8911 30.3581C49.7624 31.2186 53.2141 31.962 56.7891 32C65.194 32 70.694 27.8493 70.7224 21.4082C70.7572 13.2492 59.4316 12.7905 59.5138 9.14918C59.5422 8.03559 60.5885 6.8524 62.9086 6.54869C64.0466 6.40633 67.2106 6.28927 70.7951 7.93752L72.2017 1.37301C70.2736 0.673851 67.7922 0 64.7103 0C56.808 0 51.2417 4.20761 51.1974 10.2343Z" fill="white"/>
</svg>
